<?xml version="1.0" encoding="UTF-8" standalone="no"?>
<!-- Created with Inkscape (http://www.inkscape.org/) -->

<svg
   version="1.1"
   id="svg1"
   width="1733.3333"
   height="1733.3333"
   viewBox="0 0 1733.3332 1733.3332"
   sodipodi:docname="vecteezy_wall-clock-icon-isolated_16182125.eps"
   xmlns:inkscape="http://www.inkscape.org/namespaces/inkscape"
   xmlns:sodipodi="http://sodipodi.sourceforge.net/DTD/sodipodi-0.dtd"
   xmlns="http://www.w3.org/2000/svg"
   xmlns:svg="http://www.w3.org/2000/svg">
  <defs
     id="defs1" />
  <sodipodi:namedview
     id="namedview1"
     pagecolor="#ffffff"
     bordercolor="#000000"
     borderopacity="0.25"
     inkscape:showpageshadow="2"
     inkscape:pageopacity="0.0"
     inkscape:pagecheckerboard="0"
     inkscape:deskcolor="#d1d1d1" />
  <g
     id="g1"
     inkscape:groupmode="layer"
     inkscape:label="1"
     transform="translate(-466.66666,-466.66676)">
    <path
       id="path3"
       d="m 1333.3333,2072.0134 c -407.97466,0 -738.68531,-330.7067 -738.68531,-738.68 0,-407.97332 330.71065,-738.67998 738.68531,-738.67998 407.9733,0 738.68,330.70666 738.68,738.67998 0,407.9733 -330.7067,738.68 -738.68,738.68 z m 0,-1605.34664 c -478.66132,0 -866.66665,387.99999 -866.66665,866.66664 0,478.6667 388.00533,866.6666 866.66665,866.6666 478.6667,0 866.6666,-387.9999 866.6666,-866.6666 0,-478.66665 -387.9999,-866.66664 -866.6666,-866.66664"
       style="fill:#28272f;fill-opacity:1;fill-rule:nonzero;stroke:none;stroke-width:0.133333" />
    <path
       id="path4"
       d="m 2072.0133,1333.3334 c 0,407.9733 -330.7067,738.68 -738.68,738.68 -407.97466,0 -738.68531,-330.7067 -738.68531,-738.68 0,-407.97332 330.71065,-738.67998 738.68531,-738.67998 407.9733,0 738.68,330.70666 738.68,738.67998"
       style="fill:#ffffff;fill-opacity:1;fill-rule:nonzero;stroke:none;stroke-width:0.133333" />
    <path
       id="path5"
       d="m 1333.3333,832.01341 c -15.46,0 -27.9947,-12.53333 -27.9947,-28 V 665.29342 c 0,-15.45334 12.5347,-28 27.9947,-28 15.4533,0 28,12.54666 28,28 v 138.71999 c 0,15.46667 -12.5467,28 -28,28"
       style="fill:#28272f;fill-opacity:1;fill-rule:nonzero;stroke:none;stroke-width:0.133333" />
    <path
       id="path6"
       d="m 1333.3333,2029.3734 c -15.46,0 -27.9947,-12.5467 -27.9947,-28 v -138.72 c 0,-15.4667 12.5347,-28 27.9947,-28 15.4533,0 28,12.5333 28,28 v 138.72 c 0,15.4533 -12.5467,28 -28,28"
       style="fill:#28272f;fill-opacity:1;fill-rule:nonzero;stroke:none;stroke-width:0.133333" />
    <path
       id="path7"
       d="m 1052.1746,862.66675 c -5.64,0 -11.1306,-2.93334 -14.156,-8.17334 l -52.85062,-91.53333 c -4.51067,-7.81333 -1.832,-17.8 5.97866,-22.30667 7.80534,-4.52 17.79736,-1.84 22.30796,5.97334 l 52.8507,91.53333 c 4.5107,7.81333 1.8307,17.8 -5.9787,22.32 -2.5706,1.48 -5.3813,2.18667 -8.152,2.18667"
       style="fill:#28272f;fill-opacity:1;fill-rule:nonzero;stroke:none;stroke-width:0.133333" />
    <path
       id="path8"
       d="m 1667.3733,1928.2134 c -5.64,0 -11.1333,-2.9333 -14.16,-8.1733 l -52.8533,-91.5334 c -4.5067,-7.8133 -1.8267,-17.8 5.9733,-22.3066 7.8133,-4.52 17.8,-1.84 22.32,5.9733 l 52.84,91.5333 c 4.52,7.8134 1.84,17.8 -5.9733,22.3067 -2.5734,1.4933 -5.3867,2.2 -8.1467,2.2"
       style="fill:#28272f;fill-opacity:1;fill-rule:nonzero;stroke:none;stroke-width:0.133333" />
    <path
       id="path9"
       d="m 846.31598,1068.4934 c -2.76933,0 -5.58133,-0.7067 -8.15067,-2.1867 l -91.53866,-52.8533 c -7.80934,-4.5067 -10.48934,-14.49332 -5.97867,-22.30666 4.512,-7.81333 14.504,-10.48 22.308,-5.97333 l 91.53867,52.83999 c 7.81066,4.52 10.48933,14.5067 5.97866,22.3067 -3.02533,5.24 -8.516,8.1733 -14.15733,8.1733"
       style="fill:#28272f;fill-opacity:1;fill-rule:nonzero;stroke:none;stroke-width:0.133333" />
    <path
       id="path10"
       d="m 1911.8666,1683.6934 c -2.7733,0 -5.5866,-0.7067 -8.16,-2.2 l -91.5333,-52.84 c -7.8133,-4.52 -10.4933,-14.5067 -5.9733,-22.32 4.5066,-7.8 14.4933,-10.48 22.3066,-5.9733 l 91.5334,52.8533 c 7.8133,4.5067 10.4933,14.4933 5.9733,22.3067 -3.0267,5.24 -8.5067,8.1733 -14.1467,8.1733"
       style="fill:#28272f;fill-opacity:1;fill-rule:nonzero;stroke:none;stroke-width:0.133333" />
    <path
       id="path11"
       d="m 754.80531,1683.6934 c -5.64,0 -11.132,-2.9333 -14.15733,-8.1733 -4.51067,-7.8134 -1.83067,-17.8 5.97867,-22.3067 l 91.53866,-52.8533 c 7.8,-4.5067 17.79734,-1.8267 22.308,5.9733 4.51067,7.8133 1.832,17.8 -5.97866,22.32 l -91.53867,52.84 c -2.56933,1.4933 -5.38,2.2 -8.15067,2.2"
       style="fill:#28272f;fill-opacity:1;fill-rule:nonzero;stroke:none;stroke-width:0.133333" />
    <path
       id="path12"
       d="m 1820.3466,1068.4934 c -5.64,0 -11.1333,-2.9333 -14.1466,-8.1733 -4.52,-7.8 -1.84,-17.7867 5.9733,-22.3067 l 91.5333,-52.83999 c 7.8,-4.50667 17.8,-1.84 22.3067,5.97333 4.52,7.81334 1.84,17.79996 -5.9733,22.30666 l -91.5334,52.8533 c -2.5733,1.48 -5.3866,2.1867 -8.16,2.1867"
       style="fill:#28272f;fill-opacity:1;fill-rule:nonzero;stroke:none;stroke-width:0.133333" />
    <path
       id="path13"
       d="m 999.29864,1928.2134 c -2.77066,0 -5.58266,-0.7067 -8.152,-2.2 -7.81066,-4.5067 -10.48933,-14.4933 -5.97866,-22.3067 l 52.85062,-91.5333 c 4.5107,-7.8133 14.508,-10.4933 22.308,-5.9733 7.8094,4.5066 10.4894,14.4933 5.9787,22.3066 l -52.8507,91.5334 c -3.0253,5.24 -8.516,8.1733 -14.15596,8.1733"
       style="fill:#28272f;fill-opacity:1;fill-rule:nonzero;stroke:none;stroke-width:0.133333" />
    <path
       id="path14"
       d="m 1614.4933,862.66675 c -2.7733,0 -5.5867,-0.70667 -8.16,-2.18667 -7.8,-4.52 -10.48,-14.50667 -5.9733,-22.32 l 52.8533,-91.53333 c 4.5067,-7.81334 14.5067,-10.49334 22.3067,-5.97334 7.8133,4.50667 10.4933,14.49334 5.9733,22.30667 l -52.84,91.53333 c -3.0267,5.24 -8.52,8.17334 -14.16,8.17334"
       style="fill:#28272f;fill-opacity:1;fill-rule:nonzero;stroke:none;stroke-width:0.133333" />
    <path
       id="path15"
       d="m 804.01865,1361.3334 h -138.724 c -15.46,0 -27.99467,-12.5467 -27.99467,-28 0,-15.4533 12.53467,-28 27.99467,-28 h 138.724 c 15.46,0 27.99466,12.5467 27.99466,28 0,15.4533 -12.53466,28 -27.99466,28"
       style="fill:#28272f;fill-opacity:1;fill-rule:nonzero;stroke:none;stroke-width:0.133333" />
    <path
       id="path16"
       d="m 2001.3733,1361.3334 h -138.72 c -15.4667,0 -28,-12.5467 -28,-28 0,-15.4533 12.5333,-28 28,-28 h 138.72 c 15.4533,0 28,12.5467 28,28 0,15.4533 -12.5467,28 -28,28"
       style="fill:#28272f;fill-opacity:1;fill-rule:nonzero;stroke:none;stroke-width:0.133333" />
    <path
       id="path17"
       d="m 1406.04,1333.3334 c 0,40.16 -32.5467,72.7067 -72.7067,72.7067 -40.156,0 -72.708,-32.5467 -72.708,-72.7067 0,-40.16 32.552,-72.7067 72.708,-72.7067 40.16,0 72.7067,32.5467 72.7067,72.7067"
       style="fill:#28272f;fill-opacity:1;fill-rule:nonzero;stroke:none;stroke-width:0.133333" />
    <path
       id="path18"
       d="m 1333.3333,1366.0001 c -18.0387,0 -32.66,-14.6267 -32.66,-32.6667 V 942.57341 c 0,-18.04 14.6213,-32.65333 32.66,-32.65333 18.04,0 32.6667,14.61333 32.6667,32.65333 v 390.75999 c 0,18.04 -14.6267,32.6667 -32.6667,32.6667"
       style="fill:#28272f;fill-opacity:1;fill-rule:nonzero;stroke:none;stroke-width:0.133333" />
    <path
       id="path19"
       d="M 1333.3333,1366.0001 H 999.31198 c -18.03867,0 -32.66134,-14.6267 -32.66134,-32.6667 0,-18.04 14.62267,-32.6533 32.66134,-32.6533 h 334.02132 c 18.04,0 32.6667,14.6133 32.6667,32.6533 0,18.04 -14.6267,32.6667 -32.6667,32.6667"
       style="fill:#28272f;fill-opacity:1;fill-rule:nonzero;stroke:none;stroke-width:0.133333" />
    <path
       id="path20"
       d="m 1380.3866,1333.3334 c 0,25.9867 -21.0666,47.0533 -47.0533,47.0533 -25.9827,0 -47.0467,-21.0666 -47.0467,-47.0533 0,-25.9867 21.064,-47.0533 47.0467,-47.0533 25.9867,0 47.0533,21.0666 47.0533,47.0533"
       style="fill:#e73d52;fill-opacity:1;fill-rule:nonzero;stroke:none;stroke-width:0.133333" />
    <path
       id="path21"
       d="m 1545.96,1722.5734 c -7.2534,0 -14.32,-3.7733 -18.2134,-10.5067 l -212.5986,-368.24 c -5.7947,-10.04 -2.3547,-22.88 7.6866,-28.68 10.0427,-5.8 22.8854,-2.36 28.6854,7.6934 l 212.6,368.2266 c 5.8,10.04 2.36,22.88 -7.68,28.6934 -3.32,1.9066 -6.92,2.8133 -10.48,2.8133"
       style="fill:#ee4266;fill-opacity:1;fill-rule:nonzero;stroke:none;stroke-width:0.133333" />
  </g>
</svg>
