<?xml version="1.0" encoding="UTF-8" standalone="no"?>
<!-- Created with Inkscape (http://www.inkscape.org/) -->

<svg
   version="1.1"
   id="svg1"
   width="52.916668mm"
   height="59.610435mm"
   viewBox="0 0 200.00001 225.29929"
   sodipodi:docname="vecteezy_desktop-pop-art-icon_.eps.svg"
   inkscape:version="1.3 (0e150ed6c4, 2023-07-21)"
   xmlns:inkscape="http://www.inkscape.org/namespaces/inkscape"
   xmlns:sodipodi="http://sodipodi.sourceforge.net/DTD/sodipodi-0.dtd"
   xmlns="http://www.w3.org/2000/svg"
   xmlns:svg="http://www.w3.org/2000/svg">
  <defs
     id="defs1" />
  <sodipodi:namedview
     id="namedview1"
     pagecolor="#ffffff"
     bordercolor="#000000"
     borderopacity="0.25"
     inkscape:showpageshadow="2"
     inkscape:pageopacity="0.0"
     inkscape:pagecheckerboard="0"
     inkscape:deskcolor="#d1d1d1"
     inkscape:zoom="1"
     inkscape:cx="42"
     inkscape:cy="110"
     inkscape:window-width="1920"
     inkscape:window-height="1056"
     inkscape:window-x="1920"
     inkscape:window-y="0"
     inkscape:window-maximized="1"
     inkscape:current-layer="g1"
     inkscape:document-units="mm" />
  <g
     id="g1"
     inkscape:groupmode="layer"
     inkscape:label="1"
     transform="translate(-757.64235,-551.76533)">
    <g
       id="group-R5"
       transform="matrix(0.09825532,0,0,0.10483588,718.68805,516.15468)">
      <path
         id="path2"
         d="m 13304.6,9546.1 c -413.9,1087.3 -1465.4,1860.2 -2698,1860.2 -1232.59,0 -2284.12,-772.9 -2698,-1860.2 h 5396"
         style="fill:#28272f;fill-opacity:1;fill-rule:nonzero;stroke:none"
         transform="matrix(0.13333333,0,0,-0.13333333,0,2829.3333)" />
      <path
         id="path3"
         d="M 15659.7,9934.5 H 5553.47 c -548.79,0 -997.8,449 -997.8,997.8 v 6742.3 c 0,548.8 449.01,997.8 997.8,997.8 H 15659.7 c 548.8,0 997.8,-449 997.8,-997.8 v -6742.3 c 0,-548.8 -449,-997.8 -997.8,-997.8"
         style="fill:#28272f;fill-opacity:1;fill-rule:nonzero;stroke:none"
         transform="matrix(0.13333333,0,0,-0.13333333,0,2829.3333)" />
      <path
         id="path4"
         d="M 13209.1,10706.4 H 8004.11 c -1308.65,0 -2379.36,1070.8 -2379.36,2379.4 v 2435.3 c 0,1308.7 1070.71,2379.4 2379.36,2379.4 h 5204.99 c 1308.6,0 2379.4,-1070.7 2379.4,-2379.4 v -2435.3 c 0,-1308.6 -1070.8,-2379.4 -2379.4,-2379.4"
         style="fill:#247c64;fill-opacity:1;fill-rule:nonzero;stroke:none"
         transform="matrix(0.13333333,0,0,-0.13333333,0,2829.3333)" />
      <path
         id="path5"
         d="m 8864.52,11855.3 c -1162.5,0 -2255.64,250.1 -3208.22,689.9 246.54,-1050.4 1193.49,-1838.8 2316.24,-1838.8 h 5204.96 c 1308.7,0 2379.4,1070.8 2379.4,2379.4 v 2435.3 c 0,284.8 -50.8,558.2 -143.6,811.8 -637.5,-2557.4 -3327.1,-4477.6 -6548.78,-4477.6"
         style="fill:#1e6953;fill-opacity:1;fill-rule:nonzero;stroke:none"
         transform="matrix(0.13333333,0,0,-0.13333333,0,2829.3333)" />
      <path
         id="path6"
         d="m 9476.94,16332.9 c 0,-450.3 -555.56,-815.4 -1240.89,-815.4 -685.33,0 -1240.89,365.1 -1240.89,815.4 0,450.3 555.56,815.4 1240.89,815.4 685.33,0 1240.89,-365.1 1240.89,-815.4"
         style="fill:#f6d4b1;fill-opacity:1;fill-rule:nonzero;stroke:none"
         transform="matrix(0.13333333,0,0,-0.13333333,0,2829.3333)" />
      <path
         id="path7"
         d="m 9476.94,17148.3 c 0,77.3 95.44,140.1 213.18,140.1 117.71,0 213.15,-62.8 213.15,-140.1 0,-77.4 -95.44,-140.1 -213.15,-140.1 -117.74,0 -213.18,62.7 -213.18,140.1"
         style="fill:#f6d4b1;fill-opacity:1;fill-rule:nonzero;stroke:none"
         transform="matrix(0.13333333,0,0,-0.13333333,0,2829.3333)" />
      <path
         id="path8"
         d="M 16657.5,6125.1 H 4555.67 v 3421 H 16657.5 v -3421"
         style="fill:#28272f;fill-opacity:1;fill-rule:nonzero;stroke:none"
         transform="matrix(0.13333333,0,0,-0.13333333,0,2829.3333)" />
      <path
         id="path9"
         d="M 16657.5,7602.3 H 4555.67 v 72.9 H 16657.5 v -72.9"
         style="fill:#247c64;fill-opacity:1;fill-rule:nonzero;stroke:none"
         transform="matrix(0.13333333,0,0,-0.13333333,0,2829.3333)" />
      <path
         id="path10"
         d="M 16657.5,7371.5 H 4555.67 v 72.9 H 16657.5 v -72.9"
         style="fill:#247c64;fill-opacity:1;fill-rule:nonzero;stroke:none"
         transform="matrix(0.13333333,0,0,-0.13333333,0,2829.3333)" />
      <path
         id="path11"
         d="M 16657.5,7140.7 H 4555.67 v 72.9 H 16657.5 v -72.9"
         style="fill:#247c64;fill-opacity:1;fill-rule:nonzero;stroke:none"
         transform="matrix(0.13333333,0,0,-0.13333333,0,2829.3333)" />
      <path
         id="path12"
         d="m 16365.3,8876.2 h -3321.2 v 356.3 h 3321.2 v -356.3"
         style="fill:#247c64;fill-opacity:1;fill-rule:nonzero;stroke:none"
         transform="matrix(0.13333333,0,0,-0.13333333,0,2829.3333)" />
      <path
         id="path13"
         d="m 16365.3,6626.4 h -3321.2 v 356.4 h 3321.2 v -356.4"
         style="fill:#247c64;fill-opacity:1;fill-rule:nonzero;stroke:none"
         transform="matrix(0.13333333,0,0,-0.13333333,0,2829.3333)" />
      <path
         id="path14"
         d="M 8211.1,8234.7 H 4889.87 v 997.8 H 8211.1 v -997.8"
         style="fill:#247c64;fill-opacity:1;fill-rule:nonzero;stroke:none"
         transform="matrix(0.13333333,0,0,-0.13333333,0,2829.3333)" />
      <path
         id="path15"
         d="M 18239.8,3195.8 H 2973.45 l 898.01,2929.3 H 17341.7 l 898.1,-2929.3"
         style="fill:#28272f;fill-opacity:1;fill-rule:nonzero;stroke:none"
         transform="matrix(0.13333333,0,0,-0.13333333,0,2829.3333)" />
      <path
         id="path16"
         d="m 4933.4,3555.8 h -413.37 c -41.34,0 -74.83,33.4 -74.83,74.8 V 3766 c 0,41.4 33.49,74.8 74.83,74.8 h 413.37 c 41.35,0 74.83,-33.4 74.83,-74.8 v -135.4 c 0,-41.4 -33.48,-74.8 -74.83,-74.8"
         style="fill:#1c614d;fill-opacity:1;fill-rule:nonzero;stroke:none"
         transform="matrix(0.13333333,0,0,-0.13333333,0,2829.3333)" />
      <path
         id="path17"
         d="m 4933.4,3644.8 h -413.37 c -41.34,0 -74.83,33.6 -74.83,74.9 v 135.4 c 0,41.3 33.49,74.8 74.83,74.8 h 413.37 c 41.35,0 74.83,-33.5 74.83,-74.8 v -135.4 c 0,-41.3 -33.48,-74.9 -74.83,-74.9"
         style="fill:#247c64;fill-opacity:1;fill-rule:nonzero;stroke:none"
         transform="matrix(0.13333333,0,0,-0.13333333,0,2829.3333)" />
      <path
         id="path18"
         d="m 5642.56,3555.8 h -413.37 c -41.35,0 -74.83,33.4 -74.83,74.8 V 3766 c 0,41.4 33.48,74.8 74.83,74.8 h 413.37 c 41.34,0 74.83,-33.4 74.83,-74.8 v -135.4 c 0,-41.4 -33.49,-74.8 -74.83,-74.8"
         style="fill:#1c614d;fill-opacity:1;fill-rule:nonzero;stroke:none"
         transform="matrix(0.13333333,0,0,-0.13333333,0,2829.3333)" />
      <path
         id="path19"
         d="m 5642.56,3644.8 h -413.37 c -41.35,0 -74.83,33.6 -74.83,74.9 v 135.4 c 0,41.3 33.48,74.8 74.83,74.8 h 413.37 c 41.34,0 74.83,-33.5 74.83,-74.8 v -135.4 c 0,-41.3 -33.49,-74.9 -74.83,-74.9"
         style="fill:#247c64;fill-opacity:1;fill-rule:nonzero;stroke:none"
         transform="matrix(0.13333333,0,0,-0.13333333,0,2829.3333)" />
      <path
         id="path20"
         d="m 6351.71,3555.8 h -413.37 c -41.34,0 -74.83,33.4 -74.83,74.8 V 3766 c 0,41.4 33.49,74.8 74.83,74.8 h 413.37 c 41.32,0 74.83,-33.4 74.83,-74.8 v -135.4 c 0,-41.4 -33.51,-74.8 -74.83,-74.8"
         style="fill:#1c614d;fill-opacity:1;fill-rule:nonzero;stroke:none"
         transform="matrix(0.13333333,0,0,-0.13333333,0,2829.3333)" />
      <path
         id="path21"
         d="m 6351.71,3644.8 h -413.37 c -41.34,0 -74.83,33.6 -74.83,74.9 v 135.4 c 0,41.3 33.49,74.8 74.83,74.8 h 413.37 c 41.32,0 74.83,-33.5 74.83,-74.8 v -135.4 c 0,-41.3 -33.51,-74.9 -74.83,-74.9"
         style="fill:#247c64;fill-opacity:1;fill-rule:nonzero;stroke:none"
         transform="matrix(0.13333333,0,0,-0.13333333,0,2829.3333)" />
      <path
         id="path22"
         d="m 4933.4,4040.4 h -413.37 c -41.34,0 -74.83,33.5 -74.83,74.8 v 135.5 c 0,41.3 33.49,74.8 74.83,74.8 h 413.37 c 41.35,0 74.83,-33.5 74.83,-74.8 v -135.5 c 0,-41.3 -33.48,-74.8 -74.83,-74.8"
         style="fill:#1c614d;fill-opacity:1;fill-rule:nonzero;stroke:none"
         transform="matrix(0.13333333,0,0,-0.13333333,0,2829.3333)" />
      <path
         id="path23"
         d="m 4933.4,4129.5 h -413.37 c -41.34,0 -74.83,33.5 -74.83,74.8 v 135.4 c 0,41.4 33.49,74.9 74.83,74.9 h 413.37 c 41.35,0 74.83,-33.5 74.83,-74.9 v -135.4 c 0,-41.3 -33.48,-74.8 -74.83,-74.8"
         style="fill:#247c64;fill-opacity:1;fill-rule:nonzero;stroke:none"
         transform="matrix(0.13333333,0,0,-0.13333333,0,2829.3333)" />
      <path
         id="path24"
         d="m 5642.56,4040.4 h -413.37 c -41.35,0 -74.83,33.5 -74.83,74.8 v 135.5 c 0,41.3 33.48,74.8 74.83,74.8 h 413.37 c 41.34,0 74.83,-33.5 74.83,-74.8 v -135.5 c 0,-41.3 -33.49,-74.8 -74.83,-74.8"
         style="fill:#1c614d;fill-opacity:1;fill-rule:nonzero;stroke:none"
         transform="matrix(0.13333333,0,0,-0.13333333,0,2829.3333)" />
      <path
         id="path25"
         d="m 5642.56,4129.5 h -413.37 c -41.35,0 -74.83,33.5 -74.83,74.8 v 135.4 c 0,41.4 33.48,74.9 74.83,74.9 h 413.37 c 41.34,0 74.83,-33.5 74.83,-74.9 v -135.4 c 0,-41.3 -33.49,-74.8 -74.83,-74.8"
         style="fill:#247c64;fill-opacity:1;fill-rule:nonzero;stroke:none"
         transform="matrix(0.13333333,0,0,-0.13333333,0,2829.3333)" />
      <path
         id="path26"
         d="m 6351.71,4040.4 h -413.37 c -41.34,0 -74.83,33.5 -74.83,74.8 v 135.5 c 0,41.3 33.49,74.8 74.83,74.8 h 413.37 c 41.32,0 74.83,-33.5 74.83,-74.8 v -135.5 c 0,-41.3 -33.51,-74.8 -74.83,-74.8"
         style="fill:#1c614d;fill-opacity:1;fill-rule:nonzero;stroke:none"
         transform="matrix(0.13333333,0,0,-0.13333333,0,2829.3333)" />
      <path
         id="path27"
         d="m 6351.71,4129.5 h -413.37 c -41.34,0 -74.83,33.5 -74.83,74.8 v 135.4 c 0,41.4 33.49,74.9 74.83,74.9 h 413.37 c 41.32,0 74.83,-33.5 74.83,-74.9 v -135.4 c 0,-41.3 -33.51,-74.8 -74.83,-74.8"
         style="fill:#247c64;fill-opacity:1;fill-rule:nonzero;stroke:none"
         transform="matrix(0.13333333,0,0,-0.13333333,0,2829.3333)" />
      <path
         id="path28"
         d="m 4933.4,4525 h -413.37 c -41.34,0 -74.83,33.5 -74.83,74.9 v 135.4 c 0,41.3 33.49,74.8 74.83,74.8 h 413.37 c 41.35,0 74.83,-33.5 74.83,-74.8 v -135.4 c 0,-41.4 -33.48,-74.9 -74.83,-74.9"
         style="fill:#1c614d;fill-opacity:1;fill-rule:nonzero;stroke:none"
         transform="matrix(0.13333333,0,0,-0.13333333,0,2829.3333)" />
      <path
         id="path29"
         d="m 4933.4,4614.1 h -413.37 c -41.34,0 -74.83,33.5 -74.83,74.9 v 135.4 c 0,41.3 33.49,74.8 74.83,74.8 h 413.37 c 41.35,0 74.83,-33.5 74.83,-74.8 V 4689 c 0,-41.4 -33.48,-74.9 -74.83,-74.9"
         style="fill:#247c64;fill-opacity:1;fill-rule:nonzero;stroke:none"
         transform="matrix(0.13333333,0,0,-0.13333333,0,2829.3333)" />
      <path
         id="path30"
         d="m 5642.56,4525 h -413.37 c -41.35,0 -74.83,33.5 -74.83,74.9 v 135.4 c 0,41.3 33.48,74.8 74.83,74.8 h 413.37 c 41.34,0 74.83,-33.5 74.83,-74.8 v -135.4 c 0,-41.4 -33.49,-74.9 -74.83,-74.9"
         style="fill:#1c614d;fill-opacity:1;fill-rule:nonzero;stroke:none"
         transform="matrix(0.13333333,0,0,-0.13333333,0,2829.3333)" />
      <path
         id="path31"
         d="m 5642.56,4614.1 h -413.37 c -41.35,0 -74.83,33.5 -74.83,74.9 v 135.4 c 0,41.3 33.48,74.8 74.83,74.8 h 413.37 c 41.34,0 74.83,-33.5 74.83,-74.8 V 4689 c 0,-41.4 -33.49,-74.9 -74.83,-74.9"
         style="fill:#247c64;fill-opacity:1;fill-rule:nonzero;stroke:none"
         transform="matrix(0.13333333,0,0,-0.13333333,0,2829.3333)" />
      <path
         id="path32"
         d="m 6351.71,4525 h -413.37 c -41.34,0 -74.83,33.5 -74.83,74.9 v 135.4 c 0,41.3 33.49,74.8 74.83,74.8 h 413.37 c 41.32,0 74.83,-33.5 74.83,-74.8 v -135.4 c 0,-41.4 -33.51,-74.9 -74.83,-74.9"
         style="fill:#1c614d;fill-opacity:1;fill-rule:nonzero;stroke:none"
         transform="matrix(0.13333333,0,0,-0.13333333,0,2829.3333)" />
      <path
         id="path33"
         d="m 6351.71,4614.1 h -413.37 c -41.34,0 -74.83,33.5 -74.83,74.9 v 135.4 c 0,41.3 33.49,74.8 74.83,74.8 h 413.37 c 41.32,0 74.83,-33.5 74.83,-74.8 V 4689 c 0,-41.4 -33.51,-74.9 -74.83,-74.9"
         style="fill:#247c64;fill-opacity:1;fill-rule:nonzero;stroke:none"
         transform="matrix(0.13333333,0,0,-0.13333333,0,2829.3333)" />
      <path
         id="path34"
         d="m 7452.06,3555.8 h -413.37 c -41.32,0 -74.83,33.4 -74.83,74.8 V 3766 c 0,41.4 33.51,74.8 74.83,74.8 h 413.37 c 41.34,0 74.83,-33.4 74.83,-74.8 v -135.4 c 0,-41.4 -33.49,-74.8 -74.83,-74.8"
         style="fill:#1c614d;fill-opacity:1;fill-rule:nonzero;stroke:none"
         transform="matrix(0.13333333,0,0,-0.13333333,0,2829.3333)" />
      <path
         id="path35"
         d="m 7452.06,3644.8 h -413.37 c -41.32,0 -74.83,33.6 -74.83,74.9 v 135.4 c 0,41.3 33.51,74.8 74.83,74.8 h 413.37 c 41.34,0 74.83,-33.5 74.83,-74.8 v -135.4 c 0,-41.3 -33.49,-74.9 -74.83,-74.9"
         style="fill:#247c64;fill-opacity:1;fill-rule:nonzero;stroke:none"
         transform="matrix(0.13333333,0,0,-0.13333333,0,2829.3333)" />
      <path
         id="path36"
         d="m 8161.22,3555.8 h -413.38 c -41.31,0 -74.83,33.4 -74.83,74.8 V 3766 c 0,41.4 33.52,74.8 74.83,74.8 h 413.38 c 41.34,0 74.83,-33.4 74.83,-74.8 v -135.4 c 0,-41.4 -33.49,-74.8 -74.83,-74.8"
         style="fill:#1c614d;fill-opacity:1;fill-rule:nonzero;stroke:none"
         transform="matrix(0.13333333,0,0,-0.13333333,0,2829.3333)" />
      <path
         id="path37"
         d="m 8161.22,3644.8 h -413.38 c -41.31,0 -74.83,33.6 -74.83,74.9 v 135.4 c 0,41.3 33.52,74.8 74.83,74.8 h 413.38 c 41.34,0 74.83,-33.5 74.83,-74.8 v -135.4 c 0,-41.3 -33.49,-74.9 -74.83,-74.9"
         style="fill:#247c64;fill-opacity:1;fill-rule:nonzero;stroke:none"
         transform="matrix(0.13333333,0,0,-0.13333333,0,2829.3333)" />
      <path
         id="path38"
         d="M 8870.37,3555.8 H 8457 c -41.34,0 -74.83,33.4 -74.83,74.8 V 3766 c 0,41.4 33.49,74.8 74.83,74.8 h 413.37 c 41.34,0 74.84,-33.4 74.84,-74.8 v -135.4 c 0,-41.4 -33.5,-74.8 -74.84,-74.8"
         style="fill:#1c614d;fill-opacity:1;fill-rule:nonzero;stroke:none"
         transform="matrix(0.13333333,0,0,-0.13333333,0,2829.3333)" />
      <path
         id="path39"
         d="M 8870.37,3644.8 H 8457 c -41.34,0 -74.83,33.6 -74.83,74.9 v 135.4 c 0,41.3 33.49,74.8 74.83,74.8 h 413.37 c 41.34,0 74.84,-33.5 74.84,-74.8 v -135.4 c 0,-41.3 -33.5,-74.9 -74.84,-74.9"
         style="fill:#247c64;fill-opacity:1;fill-rule:nonzero;stroke:none"
         transform="matrix(0.13333333,0,0,-0.13333333,0,2829.3333)" />
      <path
         id="path40"
         d="m 7452.06,4040.4 h -413.37 c -41.32,0 -74.83,33.5 -74.83,74.8 v 135.5 c 0,41.3 33.51,74.8 74.83,74.8 h 413.37 c 41.34,0 74.83,-33.5 74.83,-74.8 v -135.5 c 0,-41.3 -33.49,-74.8 -74.83,-74.8"
         style="fill:#1c614d;fill-opacity:1;fill-rule:nonzero;stroke:none"
         transform="matrix(0.13333333,0,0,-0.13333333,0,2829.3333)" />
      <path
         id="path41"
         d="m 7452.06,4129.5 h -413.37 c -41.32,0 -74.83,33.5 -74.83,74.8 v 135.4 c 0,41.4 33.51,74.9 74.83,74.9 h 413.37 c 41.34,0 74.83,-33.5 74.83,-74.9 v -135.4 c 0,-41.3 -33.49,-74.8 -74.83,-74.8"
         style="fill:#247c64;fill-opacity:1;fill-rule:nonzero;stroke:none"
         transform="matrix(0.13333333,0,0,-0.13333333,0,2829.3333)" />
      <path
         id="path42"
         d="m 8161.22,4040.4 h -413.38 c -41.31,0 -74.83,33.5 -74.83,74.8 v 135.5 c 0,41.3 33.52,74.8 74.83,74.8 h 413.38 c 41.34,0 74.83,-33.5 74.83,-74.8 v -135.5 c 0,-41.3 -33.49,-74.8 -74.83,-74.8"
         style="fill:#1c614d;fill-opacity:1;fill-rule:nonzero;stroke:none"
         transform="matrix(0.13333333,0,0,-0.13333333,0,2829.3333)" />
      <path
         id="path43"
         d="m 8161.22,4129.5 h -413.38 c -41.31,0 -74.83,33.5 -74.83,74.8 v 135.4 c 0,41.4 33.52,74.9 74.83,74.9 h 413.38 c 41.34,0 74.83,-33.5 74.83,-74.9 v -135.4 c 0,-41.3 -33.49,-74.8 -74.83,-74.8"
         style="fill:#247c64;fill-opacity:1;fill-rule:nonzero;stroke:none"
         transform="matrix(0.13333333,0,0,-0.13333333,0,2829.3333)" />
      <path
         id="path44"
         d="M 8870.37,4040.4 H 8457 c -41.34,0 -74.83,33.5 -74.83,74.8 v 135.5 c 0,41.3 33.49,74.8 74.83,74.8 h 413.37 c 41.34,0 74.84,-33.5 74.84,-74.8 v -135.5 c 0,-41.3 -33.5,-74.8 -74.84,-74.8"
         style="fill:#1c614d;fill-opacity:1;fill-rule:nonzero;stroke:none"
         transform="matrix(0.13333333,0,0,-0.13333333,0,2829.3333)" />
      <path
         id="path45"
         d="M 8870.37,4129.5 H 8457 c -41.34,0 -74.83,33.5 -74.83,74.8 v 135.4 c 0,41.4 33.49,74.9 74.83,74.9 h 413.37 c 41.34,0 74.84,-33.5 74.84,-74.9 v -135.4 c 0,-41.3 -33.5,-74.8 -74.84,-74.8"
         style="fill:#247c64;fill-opacity:1;fill-rule:nonzero;stroke:none"
         transform="matrix(0.13333333,0,0,-0.13333333,0,2829.3333)" />
      <path
         id="path46"
         d="m 7452.06,4525 h -413.37 c -41.32,0 -74.83,33.5 -74.83,74.9 v 135.4 c 0,41.3 33.51,74.8 74.83,74.8 h 413.37 c 41.34,0 74.83,-33.5 74.83,-74.8 v -135.4 c 0,-41.4 -33.49,-74.9 -74.83,-74.9"
         style="fill:#1c614d;fill-opacity:1;fill-rule:nonzero;stroke:none"
         transform="matrix(0.13333333,0,0,-0.13333333,0,2829.3333)" />
      <path
         id="path47"
         d="m 7452.06,4614.1 h -413.37 c -41.32,0 -74.83,33.5 -74.83,74.9 v 135.4 c 0,41.3 33.51,74.8 74.83,74.8 h 413.37 c 41.34,0 74.83,-33.5 74.83,-74.8 V 4689 c 0,-41.4 -33.49,-74.9 -74.83,-74.9"
         style="fill:#247c64;fill-opacity:1;fill-rule:nonzero;stroke:none"
         transform="matrix(0.13333333,0,0,-0.13333333,0,2829.3333)" />
      <path
         id="path48"
         d="m 8161.22,4525 h -413.38 c -41.31,0 -74.83,33.5 -74.83,74.9 v 135.4 c 0,41.3 33.52,74.8 74.83,74.8 h 413.38 c 41.34,0 74.83,-33.5 74.83,-74.8 v -135.4 c 0,-41.4 -33.49,-74.9 -74.83,-74.9"
         style="fill:#1c614d;fill-opacity:1;fill-rule:nonzero;stroke:none"
         transform="matrix(0.13333333,0,0,-0.13333333,0,2829.3333)" />
      <path
         id="path49"
         d="m 8161.22,4614.1 h -413.38 c -41.31,0 -74.83,33.5 -74.83,74.9 v 135.4 c 0,41.3 33.52,74.8 74.83,74.8 h 413.38 c 41.34,0 74.83,-33.5 74.83,-74.8 V 4689 c 0,-41.4 -33.49,-74.9 -74.83,-74.9"
         style="fill:#247c64;fill-opacity:1;fill-rule:nonzero;stroke:none"
         transform="matrix(0.13333333,0,0,-0.13333333,0,2829.3333)" />
      <path
         id="path50"
         d="M 8870.37,4525 H 8457 c -41.34,0 -74.83,33.5 -74.83,74.9 v 135.4 c 0,41.3 33.49,74.8 74.83,74.8 h 413.37 c 41.34,0 74.84,-33.5 74.84,-74.8 v -135.4 c 0,-41.4 -33.5,-74.9 -74.84,-74.9"
         style="fill:#1c614d;fill-opacity:1;fill-rule:nonzero;stroke:none"
         transform="matrix(0.13333333,0,0,-0.13333333,0,2829.3333)" />
      <path
         id="path51"
         d="M 8870.37,4614.1 H 8457 c -41.34,0 -74.83,33.5 -74.83,74.9 v 135.4 c 0,41.3 33.49,74.8 74.83,74.8 h 413.37 c 41.34,0 74.84,-33.5 74.84,-74.8 V 4689 c 0,-41.4 -33.5,-74.9 -74.84,-74.9"
         style="fill:#247c64;fill-opacity:1;fill-rule:nonzero;stroke:none"
         transform="matrix(0.13333333,0,0,-0.13333333,0,2829.3333)" />
      <path
         id="path52"
         d="m 10941.6,3555.8 h -413.4 c -41.3,0 -74.8,33.4 -74.8,74.8 V 3766 c 0,41.4 33.5,74.8 74.8,74.8 h 413.4 c 41.3,0 74.8,-33.4 74.8,-74.8 v -135.4 c 0,-41.4 -33.5,-74.8 -74.8,-74.8"
         style="fill:#1c614d;fill-opacity:1;fill-rule:nonzero;stroke:none"
         transform="matrix(0.13333333,0,0,-0.13333333,0,2829.3333)" />
      <path
         id="path53"
         d="m 10941.6,3644.8 h -413.4 c -41.3,0 -74.8,33.6 -74.8,74.9 v 135.4 c 0,41.3 33.5,74.8 74.8,74.8 h 413.4 c 41.3,0 74.8,-33.5 74.8,-74.8 v -135.4 c 0,-41.3 -33.5,-74.9 -74.8,-74.9"
         style="fill:#247c64;fill-opacity:1;fill-rule:nonzero;stroke:none"
         transform="matrix(0.13333333,0,0,-0.13333333,0,2829.3333)" />
      <path
         id="path54"
         d="m 11650.7,3555.8 h -413.3 c -41.4,0 -74.9,33.4 -74.9,74.8 V 3766 c 0,41.4 33.5,74.8 74.9,74.8 h 413.3 c 41.4,0 74.9,-33.4 74.9,-74.8 v -135.4 c 0,-41.4 -33.5,-74.8 -74.9,-74.8"
         style="fill:#1c614d;fill-opacity:1;fill-rule:nonzero;stroke:none"
         transform="matrix(0.13333333,0,0,-0.13333333,0,2829.3333)" />
      <path
         id="path55"
         d="m 11650.7,3644.8 h -413.3 c -41.4,0 -74.9,33.6 -74.9,74.9 v 135.4 c 0,41.3 33.5,74.8 74.9,74.8 h 413.3 c 41.4,0 74.9,-33.5 74.9,-74.8 v -135.4 c 0,-41.3 -33.5,-74.9 -74.9,-74.9"
         style="fill:#247c64;fill-opacity:1;fill-rule:nonzero;stroke:none"
         transform="matrix(0.13333333,0,0,-0.13333333,0,2829.3333)" />
      <path
         id="path56"
         d="m 12359.9,3555.8 h -413.4 c -41.3,0 -74.8,33.4 -74.8,74.8 V 3766 c 0,41.4 33.5,74.8 74.8,74.8 h 413.4 c 41.3,0 74.8,-33.4 74.8,-74.8 v -135.4 c 0,-41.4 -33.5,-74.8 -74.8,-74.8"
         style="fill:#1c614d;fill-opacity:1;fill-rule:nonzero;stroke:none"
         transform="matrix(0.13333333,0,0,-0.13333333,0,2829.3333)" />
      <path
         id="path57"
         d="m 12359.9,3644.8 h -413.4 c -41.3,0 -74.8,33.6 -74.8,74.9 v 135.4 c 0,41.3 33.5,74.8 74.8,74.8 h 413.4 c 41.3,0 74.8,-33.5 74.8,-74.8 v -135.4 c 0,-41.3 -33.5,-74.9 -74.8,-74.9"
         style="fill:#247c64;fill-opacity:1;fill-rule:nonzero;stroke:none"
         transform="matrix(0.13333333,0,0,-0.13333333,0,2829.3333)" />
      <path
         id="path58"
         d="m 10941.6,4040.4 h -413.4 c -41.3,0 -74.8,33.5 -74.8,74.8 v 135.5 c 0,41.3 33.5,74.8 74.8,74.8 h 413.4 c 41.3,0 74.8,-33.5 74.8,-74.8 v -135.5 c 0,-41.3 -33.5,-74.8 -74.8,-74.8"
         style="fill:#1c614d;fill-opacity:1;fill-rule:nonzero;stroke:none"
         transform="matrix(0.13333333,0,0,-0.13333333,0,2829.3333)" />
      <path
         id="path59"
         d="m 10941.6,4129.5 h -413.4 c -41.3,0 -74.8,33.5 -74.8,74.8 v 135.4 c 0,41.4 33.5,74.9 74.8,74.9 h 413.4 c 41.3,0 74.8,-33.5 74.8,-74.9 v -135.4 c 0,-41.3 -33.5,-74.8 -74.8,-74.8"
         style="fill:#247c64;fill-opacity:1;fill-rule:nonzero;stroke:none"
         transform="matrix(0.13333333,0,0,-0.13333333,0,2829.3333)" />
      <path
         id="path60"
         d="m 11650.7,4040.4 h -413.3 c -41.4,0 -74.9,33.5 -74.9,74.8 v 135.5 c 0,41.3 33.5,74.8 74.9,74.8 h 413.3 c 41.4,0 74.9,-33.5 74.9,-74.8 v -135.5 c 0,-41.3 -33.5,-74.8 -74.9,-74.8"
         style="fill:#1c614d;fill-opacity:1;fill-rule:nonzero;stroke:none"
         transform="matrix(0.13333333,0,0,-0.13333333,0,2829.3333)" />
      <path
         id="path61"
         d="m 11650.7,4129.5 h -413.3 c -41.4,0 -74.9,33.5 -74.9,74.8 v 135.4 c 0,41.4 33.5,74.9 74.9,74.9 h 413.3 c 41.4,0 74.9,-33.5 74.9,-74.9 v -135.4 c 0,-41.3 -33.5,-74.8 -74.9,-74.8"
         style="fill:#247c64;fill-opacity:1;fill-rule:nonzero;stroke:none"
         transform="matrix(0.13333333,0,0,-0.13333333,0,2829.3333)" />
      <path
         id="path62"
         d="m 12359.9,4040.4 h -413.4 c -41.3,0 -74.8,33.5 -74.8,74.8 v 135.5 c 0,41.3 33.5,74.8 74.8,74.8 h 413.4 c 41.3,0 74.8,-33.5 74.8,-74.8 v -135.5 c 0,-41.3 -33.5,-74.8 -74.8,-74.8"
         style="fill:#1c614d;fill-opacity:1;fill-rule:nonzero;stroke:none"
         transform="matrix(0.13333333,0,0,-0.13333333,0,2829.3333)" />
      <path
         id="path63"
         d="m 12359.9,4129.5 h -413.4 c -41.3,0 -74.8,33.5 -74.8,74.8 v 135.4 c 0,41.4 33.5,74.9 74.8,74.9 h 413.4 c 41.3,0 74.8,-33.5 74.8,-74.9 v -135.4 c 0,-41.3 -33.5,-74.8 -74.8,-74.8"
         style="fill:#247c64;fill-opacity:1;fill-rule:nonzero;stroke:none"
         transform="matrix(0.13333333,0,0,-0.13333333,0,2829.3333)" />
      <path
         id="path64"
         d="m 10941.6,4525 h -413.4 c -41.3,0 -74.8,33.5 -74.8,74.9 v 135.4 c 0,41.3 33.5,74.8 74.8,74.8 h 413.4 c 41.3,0 74.8,-33.5 74.8,-74.8 v -135.4 c 0,-41.4 -33.5,-74.9 -74.8,-74.9"
         style="fill:#1c614d;fill-opacity:1;fill-rule:nonzero;stroke:none"
         transform="matrix(0.13333333,0,0,-0.13333333,0,2829.3333)" />
      <path
         id="path65"
         d="m 10941.6,4614.1 h -413.4 c -41.3,0 -74.8,33.5 -74.8,74.9 v 135.4 c 0,41.3 33.5,74.8 74.8,74.8 h 413.4 c 41.3,0 74.8,-33.5 74.8,-74.8 V 4689 c 0,-41.4 -33.5,-74.9 -74.8,-74.9"
         style="fill:#247c64;fill-opacity:1;fill-rule:nonzero;stroke:none"
         transform="matrix(0.13333333,0,0,-0.13333333,0,2829.3333)" />
      <path
         id="path66"
         d="m 11650.7,4525 h -413.3 c -41.4,0 -74.9,33.5 -74.9,74.9 v 135.4 c 0,41.3 33.5,74.8 74.9,74.8 h 413.3 c 41.4,0 74.9,-33.5 74.9,-74.8 v -135.4 c 0,-41.4 -33.5,-74.9 -74.9,-74.9"
         style="fill:#1c614d;fill-opacity:1;fill-rule:nonzero;stroke:none"
         transform="matrix(0.13333333,0,0,-0.13333333,0,2829.3333)" />
      <path
         id="path67"
         d="m 11650.7,4614.1 h -413.3 c -41.4,0 -74.9,33.5 -74.9,74.9 v 135.4 c 0,41.3 33.5,74.8 74.9,74.8 h 413.3 c 41.4,0 74.9,-33.5 74.9,-74.8 V 4689 c 0,-41.4 -33.5,-74.9 -74.9,-74.9"
         style="fill:#247c64;fill-opacity:1;fill-rule:nonzero;stroke:none"
         transform="matrix(0.13333333,0,0,-0.13333333,0,2829.3333)" />
      <path
         id="path68"
         d="m 12359.9,4525 h -413.4 c -41.3,0 -74.8,33.5 -74.8,74.9 v 135.4 c 0,41.3 33.5,74.8 74.8,74.8 h 413.4 c 41.3,0 74.8,-33.5 74.8,-74.8 v -135.4 c 0,-41.4 -33.5,-74.9 -74.8,-74.9"
         style="fill:#1c614d;fill-opacity:1;fill-rule:nonzero;stroke:none"
         transform="matrix(0.13333333,0,0,-0.13333333,0,2829.3333)" />
      <path
         id="path69"
         d="m 12359.9,4614.1 h -413.4 c -41.3,0 -74.8,33.5 -74.8,74.9 v 135.4 c 0,41.3 33.5,74.8 74.8,74.8 h 413.4 c 41.3,0 74.8,-33.5 74.8,-74.8 V 4689 c 0,-41.4 -33.5,-74.9 -74.8,-74.9"
         style="fill:#247c64;fill-opacity:1;fill-rule:nonzero;stroke:none"
         transform="matrix(0.13333333,0,0,-0.13333333,0,2829.3333)" />
      <path
         id="path70"
         d="m 13108.2,3555.8 h -413.4 c -41.3,0 -74.8,33.4 -74.8,74.8 V 3766 c 0,41.4 33.5,74.8 74.8,74.8 h 413.4 c 41.4,0 74.9,-33.4 74.9,-74.8 v -135.4 c 0,-41.4 -33.5,-74.8 -74.9,-74.8"
         style="fill:#1c614d;fill-opacity:1;fill-rule:nonzero;stroke:none"
         transform="matrix(0.13333333,0,0,-0.13333333,0,2829.3333)" />
      <path
         id="path71"
         d="m 13108.2,3644.8 h -413.4 c -41.3,0 -74.8,33.6 -74.8,74.9 v 135.4 c 0,41.3 33.5,74.8 74.8,74.8 h 413.4 c 41.4,0 74.9,-33.5 74.9,-74.8 v -135.4 c 0,-41.3 -33.5,-74.9 -74.9,-74.9"
         style="fill:#247c64;fill-opacity:1;fill-rule:nonzero;stroke:none"
         transform="matrix(0.13333333,0,0,-0.13333333,0,2829.3333)" />
      <path
         id="path72"
         d="M 13817.4,3555.8 H 13404 c -41.3,0 -74.8,33.4 -74.8,74.8 V 3766 c 0,41.4 33.5,74.8 74.8,74.8 h 413.4 c 41.3,0 74.8,-33.4 74.8,-74.8 v -135.4 c 0,-41.4 -33.5,-74.8 -74.8,-74.8"
         style="fill:#1c614d;fill-opacity:1;fill-rule:nonzero;stroke:none"
         transform="matrix(0.13333333,0,0,-0.13333333,0,2829.3333)" />
      <path
         id="path73"
         d="M 13817.4,3644.8 H 13404 c -41.3,0 -74.8,33.6 -74.8,74.9 v 135.4 c 0,41.3 33.5,74.8 74.8,74.8 h 413.4 c 41.3,0 74.8,-33.5 74.8,-74.8 v -135.4 c 0,-41.3 -33.5,-74.9 -74.8,-74.9"
         style="fill:#247c64;fill-opacity:1;fill-rule:nonzero;stroke:none"
         transform="matrix(0.13333333,0,0,-0.13333333,0,2829.3333)" />
      <path
         id="path74"
         d="m 14526.5,3555.8 h -413.4 c -41.3,0 -74.8,33.4 -74.8,74.8 V 3766 c 0,41.4 33.5,74.8 74.8,74.8 h 413.4 c 41.4,0 74.8,-33.4 74.8,-74.8 v -135.4 c 0,-41.4 -33.4,-74.8 -74.8,-74.8"
         style="fill:#1c614d;fill-opacity:1;fill-rule:nonzero;stroke:none"
         transform="matrix(0.13333333,0,0,-0.13333333,0,2829.3333)" />
      <path
         id="path75"
         d="m 14526.5,3644.8 h -413.4 c -41.3,0 -74.8,33.6 -74.8,74.9 v 135.4 c 0,41.3 33.5,74.8 74.8,74.8 h 413.4 c 41.4,0 74.8,-33.5 74.8,-74.8 v -135.4 c 0,-41.3 -33.4,-74.9 -74.8,-74.9"
         style="fill:#247c64;fill-opacity:1;fill-rule:nonzero;stroke:none"
         transform="matrix(0.13333333,0,0,-0.13333333,0,2829.3333)" />
      <path
         id="path76"
         d="m 13108.2,4040.4 h -413.4 c -41.3,0 -74.8,33.5 -74.8,74.8 v 135.5 c 0,41.3 33.5,74.8 74.8,74.8 h 413.4 c 41.4,0 74.9,-33.5 74.9,-74.8 v -135.5 c 0,-41.3 -33.5,-74.8 -74.9,-74.8"
         style="fill:#1c614d;fill-opacity:1;fill-rule:nonzero;stroke:none"
         transform="matrix(0.13333333,0,0,-0.13333333,0,2829.3333)" />
      <path
         id="path77"
         d="m 13108.2,4129.5 h -413.4 c -41.3,0 -74.8,33.5 -74.8,74.8 v 135.4 c 0,41.4 33.5,74.9 74.8,74.9 h 413.4 c 41.4,0 74.9,-33.5 74.9,-74.9 v -135.4 c 0,-41.3 -33.5,-74.8 -74.9,-74.8"
         style="fill:#247c64;fill-opacity:1;fill-rule:nonzero;stroke:none"
         transform="matrix(0.13333333,0,0,-0.13333333,0,2829.3333)" />
      <path
         id="path78"
         d="M 13817.4,4040.4 H 13404 c -41.3,0 -74.8,33.5 -74.8,74.8 v 135.5 c 0,41.3 33.5,74.8 74.8,74.8 h 413.4 c 41.3,0 74.8,-33.5 74.8,-74.8 v -135.5 c 0,-41.3 -33.5,-74.8 -74.8,-74.8"
         style="fill:#1c614d;fill-opacity:1;fill-rule:nonzero;stroke:none"
         transform="matrix(0.13333333,0,0,-0.13333333,0,2829.3333)" />
      <path
         id="path79"
         d="M 13817.4,4129.5 H 13404 c -41.3,0 -74.8,33.5 -74.8,74.8 v 135.4 c 0,41.4 33.5,74.9 74.8,74.9 h 413.4 c 41.3,0 74.8,-33.5 74.8,-74.9 v -135.4 c 0,-41.3 -33.5,-74.8 -74.8,-74.8"
         style="fill:#247c64;fill-opacity:1;fill-rule:nonzero;stroke:none"
         transform="matrix(0.13333333,0,0,-0.13333333,0,2829.3333)" />
      <path
         id="path80"
         d="m 14526.5,4040.4 h -413.4 c -41.3,0 -74.8,33.5 -74.8,74.8 v 135.5 c 0,41.3 33.5,74.8 74.8,74.8 h 413.4 c 41.4,0 74.8,-33.5 74.8,-74.8 v -135.5 c 0,-41.3 -33.4,-74.8 -74.8,-74.8"
         style="fill:#1c614d;fill-opacity:1;fill-rule:nonzero;stroke:none"
         transform="matrix(0.13333333,0,0,-0.13333333,0,2829.3333)" />
      <path
         id="path81"
         d="m 14526.5,4129.5 h -413.4 c -41.3,0 -74.8,33.5 -74.8,74.8 v 135.4 c 0,41.4 33.5,74.9 74.8,74.9 h 413.4 c 41.4,0 74.8,-33.5 74.8,-74.9 v -135.4 c 0,-41.3 -33.4,-74.8 -74.8,-74.8"
         style="fill:#247c64;fill-opacity:1;fill-rule:nonzero;stroke:none"
         transform="matrix(0.13333333,0,0,-0.13333333,0,2829.3333)" />
      <path
         id="path82"
         d="m 13108.2,4525 h -413.4 c -41.3,0 -74.8,33.5 -74.8,74.9 v 135.4 c 0,41.3 33.5,74.8 74.8,74.8 h 413.4 c 41.4,0 74.9,-33.5 74.9,-74.8 v -135.4 c 0,-41.4 -33.5,-74.9 -74.9,-74.9"
         style="fill:#1c614d;fill-opacity:1;fill-rule:nonzero;stroke:none"
         transform="matrix(0.13333333,0,0,-0.13333333,0,2829.3333)" />
      <path
         id="path83"
         d="m 13108.2,4614.1 h -413.4 c -41.3,0 -74.8,33.5 -74.8,74.9 v 135.4 c 0,41.3 33.5,74.8 74.8,74.8 h 413.4 c 41.4,0 74.9,-33.5 74.9,-74.8 V 4689 c 0,-41.4 -33.5,-74.9 -74.9,-74.9"
         style="fill:#247c64;fill-opacity:1;fill-rule:nonzero;stroke:none"
         transform="matrix(0.13333333,0,0,-0.13333333,0,2829.3333)" />
      <path
         id="path84"
         d="M 13817.4,4525 H 13404 c -41.3,0 -74.8,33.5 -74.8,74.9 v 135.4 c 0,41.3 33.5,74.8 74.8,74.8 h 413.4 c 41.3,0 74.8,-33.5 74.8,-74.8 v -135.4 c 0,-41.4 -33.5,-74.9 -74.8,-74.9"
         style="fill:#1c614d;fill-opacity:1;fill-rule:nonzero;stroke:none"
         transform="matrix(0.13333333,0,0,-0.13333333,0,2829.3333)" />
      <path
         id="path85"
         d="M 13817.4,4614.1 H 13404 c -41.3,0 -74.8,33.5 -74.8,74.9 v 135.4 c 0,41.3 33.5,74.8 74.8,74.8 h 413.4 c 41.3,0 74.8,-33.5 74.8,-74.8 V 4689 c 0,-41.4 -33.5,-74.9 -74.8,-74.9"
         style="fill:#247c64;fill-opacity:1;fill-rule:nonzero;stroke:none"
         transform="matrix(0.13333333,0,0,-0.13333333,0,2829.3333)" />
      <path
         id="path86"
         d="m 14526.5,4525 h -413.4 c -41.3,0 -74.8,33.5 -74.8,74.9 v 135.4 c 0,41.3 33.5,74.8 74.8,74.8 h 413.4 c 41.4,0 74.8,-33.5 74.8,-74.8 v -135.4 c 0,-41.4 -33.4,-74.9 -74.8,-74.9"
         style="fill:#1c614d;fill-opacity:1;fill-rule:nonzero;stroke:none"
         transform="matrix(0.13333333,0,0,-0.13333333,0,2829.3333)" />
      <path
         id="path87"
         d="m 14526.5,4614.1 h -413.4 c -41.3,0 -74.8,33.5 -74.8,74.9 v 135.4 c 0,41.3 33.5,74.8 74.8,74.8 h 413.4 c 41.4,0 74.8,-33.5 74.8,-74.8 V 4689 c 0,-41.4 -33.4,-74.9 -74.8,-74.9"
         style="fill:#247c64;fill-opacity:1;fill-rule:nonzero;stroke:none"
         transform="matrix(0.13333333,0,0,-0.13333333,0,2829.3333)" />
      <path
         id="path88"
         d="m 15274.9,3555.8 h -413.4 c -41.3,0 -74.8,33.4 -74.8,74.8 V 3766 c 0,41.4 33.5,74.8 74.8,74.8 h 413.4 c 41.3,0 74.8,-33.4 74.8,-74.8 v -135.4 c 0,-41.4 -33.5,-74.8 -74.8,-74.8"
         style="fill:#1c614d;fill-opacity:1;fill-rule:nonzero;stroke:none"
         transform="matrix(0.13333333,0,0,-0.13333333,0,2829.3333)" />
      <path
         id="path89"
         d="m 15274.9,3644.8 h -413.4 c -41.3,0 -74.8,33.6 -74.8,74.9 v 135.4 c 0,41.3 33.5,74.8 74.8,74.8 h 413.4 c 41.3,0 74.8,-33.5 74.8,-74.8 v -135.4 c 0,-41.3 -33.5,-74.9 -74.8,-74.9"
         style="fill:#247c64;fill-opacity:1;fill-rule:nonzero;stroke:none"
         transform="matrix(0.13333333,0,0,-0.13333333,0,2829.3333)" />
      <path
         id="path90"
         d="m 15984,3555.8 h -413.4 c -41.3,0 -74.8,33.4 -74.8,74.8 V 3766 c 0,41.4 33.5,74.8 74.8,74.8 h 413.4 c 41.4,0 74.8,-33.4 74.8,-74.8 v -135.4 c 0,-41.4 -33.4,-74.8 -74.8,-74.8"
         style="fill:#1c614d;fill-opacity:1;fill-rule:nonzero;stroke:none"
         transform="matrix(0.13333333,0,0,-0.13333333,0,2829.3333)" />
      <path
         id="path91"
         d="m 15984,3644.8 h -413.4 c -41.3,0 -74.8,33.6 -74.8,74.9 v 135.4 c 0,41.3 33.5,74.8 74.8,74.8 h 413.4 c 41.4,0 74.8,-33.5 74.8,-74.8 v -135.4 c 0,-41.3 -33.4,-74.9 -74.8,-74.9"
         style="fill:#247c64;fill-opacity:1;fill-rule:nonzero;stroke:none"
         transform="matrix(0.13333333,0,0,-0.13333333,0,2829.3333)" />
      <path
         id="path92"
         d="m 16693.2,3555.8 h -413.4 c -41.3,0 -74.8,33.4 -74.8,74.8 V 3766 c 0,41.4 33.5,74.8 74.8,74.8 h 413.4 c 41.3,0 74.8,-33.4 74.8,-74.8 v -135.4 c 0,-41.4 -33.5,-74.8 -74.8,-74.8"
         style="fill:#1c614d;fill-opacity:1;fill-rule:nonzero;stroke:none"
         transform="matrix(0.13333333,0,0,-0.13333333,0,2829.3333)" />
      <path
         id="path93"
         d="m 16693.2,3644.8 h -413.4 c -41.3,0 -74.8,33.6 -74.8,74.9 v 135.4 c 0,41.3 33.5,74.8 74.8,74.8 h 413.4 c 41.3,0 74.8,-33.5 74.8,-74.8 v -135.4 c 0,-41.3 -33.5,-74.9 -74.8,-74.9"
         style="fill:#247c64;fill-opacity:1;fill-rule:nonzero;stroke:none"
         transform="matrix(0.13333333,0,0,-0.13333333,0,2829.3333)" />
      <path
         id="path94"
         d="m 15274.9,4040.4 h -413.4 c -41.3,0 -74.8,33.5 -74.8,74.8 v 135.5 c 0,41.3 33.5,74.8 74.8,74.8 h 413.4 c 41.3,0 74.8,-33.5 74.8,-74.8 v -135.5 c 0,-41.3 -33.5,-74.8 -74.8,-74.8"
         style="fill:#1c614d;fill-opacity:1;fill-rule:nonzero;stroke:none"
         transform="matrix(0.13333333,0,0,-0.13333333,0,2829.3333)" />
      <path
         id="path95"
         d="m 15274.9,4129.5 h -413.4 c -41.3,0 -74.8,33.5 -74.8,74.8 v 135.4 c 0,41.4 33.5,74.9 74.8,74.9 h 413.4 c 41.3,0 74.8,-33.5 74.8,-74.9 v -135.4 c 0,-41.3 -33.5,-74.8 -74.8,-74.8"
         style="fill:#247c64;fill-opacity:1;fill-rule:nonzero;stroke:none"
         transform="matrix(0.13333333,0,0,-0.13333333,0,2829.3333)" />
      <path
         id="path96"
         d="m 15984,4040.4 h -413.4 c -41.3,0 -74.8,33.5 -74.8,74.8 v 135.5 c 0,41.3 33.5,74.8 74.8,74.8 h 413.4 c 41.4,0 74.8,-33.5 74.8,-74.8 v -135.5 c 0,-41.3 -33.4,-74.8 -74.8,-74.8"
         style="fill:#1c614d;fill-opacity:1;fill-rule:nonzero;stroke:none"
         transform="matrix(0.13333333,0,0,-0.13333333,0,2829.3333)" />
      <path
         id="path97"
         d="m 15984,4129.5 h -413.4 c -41.3,0 -74.8,33.5 -74.8,74.8 v 135.4 c 0,41.4 33.5,74.9 74.8,74.9 h 413.4 c 41.4,0 74.8,-33.5 74.8,-74.9 v -135.4 c 0,-41.3 -33.4,-74.8 -74.8,-74.8"
         style="fill:#247c64;fill-opacity:1;fill-rule:nonzero;stroke:none"
         transform="matrix(0.13333333,0,0,-0.13333333,0,2829.3333)" />
      <path
         id="path98"
         d="m 16693.2,4040.4 h -413.4 c -41.3,0 -74.8,33.5 -74.8,74.8 v 135.5 c 0,41.3 33.5,74.8 74.8,74.8 h 413.4 c 41.3,0 74.8,-33.5 74.8,-74.8 v -135.5 c 0,-41.3 -33.5,-74.8 -74.8,-74.8"
         style="fill:#1c614d;fill-opacity:1;fill-rule:nonzero;stroke:none"
         transform="matrix(0.13333333,0,0,-0.13333333,0,2829.3333)" />
      <path
         id="path99"
         d="m 16693.2,4129.5 h -413.4 c -41.3,0 -74.8,33.5 -74.8,74.8 v 135.4 c 0,41.4 33.5,74.9 74.8,74.9 h 413.4 c 41.3,0 74.8,-33.5 74.8,-74.9 v -135.4 c 0,-41.3 -33.5,-74.8 -74.8,-74.8"
         style="fill:#247c64;fill-opacity:1;fill-rule:nonzero;stroke:none"
         transform="matrix(0.13333333,0,0,-0.13333333,0,2829.3333)" />
      <path
         id="path100"
         d="m 15274.9,4525 h -413.4 c -41.3,0 -74.8,33.5 -74.8,74.9 v 135.4 c 0,41.3 33.5,74.8 74.8,74.8 h 413.4 c 41.3,0 74.8,-33.5 74.8,-74.8 v -135.4 c 0,-41.4 -33.5,-74.9 -74.8,-74.9"
         style="fill:#1c614d;fill-opacity:1;fill-rule:nonzero;stroke:none"
         transform="matrix(0.13333333,0,0,-0.13333333,0,2829.3333)" />
      <path
         id="path101"
         d="m 15274.9,4614.1 h -413.4 c -41.3,0 -74.8,33.5 -74.8,74.9 v 135.4 c 0,41.3 33.5,74.8 74.8,74.8 h 413.4 c 41.3,0 74.8,-33.5 74.8,-74.8 V 4689 c 0,-41.4 -33.5,-74.9 -74.8,-74.9"
         style="fill:#247c64;fill-opacity:1;fill-rule:nonzero;stroke:none"
         transform="matrix(0.13333333,0,0,-0.13333333,0,2829.3333)" />
      <path
         id="path102"
         d="m 15984,4525 h -413.4 c -41.3,0 -74.8,33.5 -74.8,74.9 v 135.4 c 0,41.3 33.5,74.8 74.8,74.8 h 413.4 c 41.4,0 74.8,-33.5 74.8,-74.8 v -135.4 c 0,-41.4 -33.4,-74.9 -74.8,-74.9"
         style="fill:#1c614d;fill-opacity:1;fill-rule:nonzero;stroke:none"
         transform="matrix(0.13333333,0,0,-0.13333333,0,2829.3333)" />
      <path
         id="path103"
         d="m 15984,4614.1 h -413.4 c -41.3,0 -74.8,33.5 -74.8,74.9 v 135.4 c 0,41.3 33.5,74.8 74.8,74.8 h 413.4 c 41.4,0 74.8,-33.5 74.8,-74.8 V 4689 c 0,-41.4 -33.4,-74.9 -74.8,-74.9"
         style="fill:#247c64;fill-opacity:1;fill-rule:nonzero;stroke:none"
         transform="matrix(0.13333333,0,0,-0.13333333,0,2829.3333)" />
      <path
         id="path104"
         d="m 16693.2,4525 h -413.4 c -41.3,0 -74.8,33.5 -74.8,74.9 v 135.4 c 0,41.3 33.5,74.8 74.8,74.8 h 413.4 c 41.3,0 74.8,-33.5 74.8,-74.8 v -135.4 c 0,-41.4 -33.5,-74.9 -74.8,-74.9"
         style="fill:#1c614d;fill-opacity:1;fill-rule:nonzero;stroke:none"
         transform="matrix(0.13333333,0,0,-0.13333333,0,2829.3333)" />
      <path
         id="path105"
         d="m 16693.2,4614.1 h -413.4 c -41.3,0 -74.8,33.5 -74.8,74.9 v 135.4 c 0,41.3 33.5,74.8 74.8,74.8 h 413.4 c 41.3,0 74.8,-33.5 74.8,-74.8 V 4689 c 0,-41.4 -33.5,-74.9 -74.8,-74.9"
         style="fill:#247c64;fill-opacity:1;fill-rule:nonzero;stroke:none"
         transform="matrix(0.13333333,0,0,-0.13333333,0,2829.3333)" />
      <path
         id="path106"
         d="M 5208.02,5291.2 H 4628.9 c -40.88,0 -74.01,33.1 -74.01,74 v 67.9 c 0,40.9 33.13,74 74.01,74 h 579.12 c 40.85,0 74,-33.1 74,-74 v -67.9 c 0,-40.9 -33.15,-74 -74,-74"
         style="fill:#1c614d;fill-opacity:1;fill-rule:nonzero;stroke:none"
         transform="matrix(0.13333333,0,0,-0.13333333,0,2829.3333)" />
      <path
         id="path107"
         d="M 5208.02,5358.7 H 4628.9 c -40.88,0 -74.01,33.1 -74.01,74 v 67.9 c 0,40.8 33.13,74 74.01,74 h 579.12 c 40.85,0 74,-33.2 74,-74 v -67.9 c 0,-40.9 -33.15,-74 -74,-74"
         style="fill:#247c64;fill-opacity:1;fill-rule:nonzero;stroke:none"
         transform="matrix(0.13333333,0,0,-0.13333333,0,2829.3333)" />
      <path
         id="path108"
         d="M 6123.82,5291.2 H 5544.7 c -40.88,0 -74.01,33.1 -74.01,74 v 67.9 c 0,40.9 33.13,74 74.01,74 h 579.12 c 40.85,0 73.98,-33.1 73.98,-74 v -67.9 c 0,-40.9 -33.13,-74 -73.98,-74"
         style="fill:#1c614d;fill-opacity:1;fill-rule:nonzero;stroke:none"
         transform="matrix(0.13333333,0,0,-0.13333333,0,2829.3333)" />
      <path
         id="path109"
         d="M 6123.82,5358.7 H 5544.7 c -40.88,0 -74.01,33.1 -74.01,74 v 67.9 c 0,40.8 33.13,74 74.01,74 h 579.12 c 40.85,0 73.98,-33.2 73.98,-74 v -67.9 c 0,-40.9 -33.13,-74 -73.98,-74"
         style="fill:#247c64;fill-opacity:1;fill-rule:nonzero;stroke:none"
         transform="matrix(0.13333333,0,0,-0.13333333,0,2829.3333)" />
      <path
         id="path110"
         d="M 7039.59,5291.2 H 6460.5 c -40.87,0 -74.01,33.1 -74.01,74 v 67.9 c 0,40.9 33.14,74 74.01,74 h 579.09 c 40.88,0 74.01,-33.1 74.01,-74 v -67.9 c 0,-40.9 -33.13,-74 -74.01,-74"
         style="fill:#1c614d;fill-opacity:1;fill-rule:nonzero;stroke:none"
         transform="matrix(0.13333333,0,0,-0.13333333,0,2829.3333)" />
      <path
         id="path111"
         d="M 7039.59,5358.7 H 6460.5 c -40.87,0 -74.01,33.1 -74.01,74 v 67.9 c 0,40.8 33.14,74 74.01,74 h 579.09 c 40.88,0 74.01,-33.2 74.01,-74 v -67.9 c 0,-40.9 -33.13,-74 -74.01,-74"
         style="fill:#247c64;fill-opacity:1;fill-rule:nonzero;stroke:none"
         transform="matrix(0.13333333,0,0,-0.13333333,0,2829.3333)" />
      <path
         id="path112"
         d="M 5208.02,5658.2 H 4628.9 c -40.88,0 -74.01,33.1 -74.01,74 v 67.9 c 0,40.9 33.13,74 74.01,74 h 579.12 c 40.85,0 74,-33.1 74,-74 v -67.9 c 0,-40.9 -33.15,-74 -74,-74"
         style="fill:#1c614d;fill-opacity:1;fill-rule:nonzero;stroke:none"
         transform="matrix(0.13333333,0,0,-0.13333333,0,2829.3333)" />
      <path
         id="path113"
         d="M 5208.02,5725.7 H 4628.9 c -40.88,0 -74.01,33.1 -74.01,74 v 67.8 c 0,40.9 33.13,74.1 74.01,74.1 h 579.12 c 40.85,0 74,-33.2 74,-74.1 v -67.8 c 0,-40.9 -33.15,-74 -74,-74"
         style="fill:#247c64;fill-opacity:1;fill-rule:nonzero;stroke:none"
         transform="matrix(0.13333333,0,0,-0.13333333,0,2829.3333)" />
      <path
         id="path114"
         d="M 6123.82,5658.2 H 5544.7 c -40.88,0 -74.01,33.1 -74.01,74 v 67.9 c 0,40.9 33.13,74 74.01,74 h 579.12 c 40.85,0 73.98,-33.1 73.98,-74 v -67.9 c 0,-40.9 -33.13,-74 -73.98,-74"
         style="fill:#1c614d;fill-opacity:1;fill-rule:nonzero;stroke:none"
         transform="matrix(0.13333333,0,0,-0.13333333,0,2829.3333)" />
      <path
         id="path115"
         d="M 6123.82,5725.7 H 5544.7 c -40.88,0 -74.01,33.1 -74.01,74 v 67.8 c 0,40.9 33.13,74.1 74.01,74.1 h 579.12 c 40.85,0 73.98,-33.2 73.98,-74.1 v -67.8 c 0,-40.9 -33.13,-74 -73.98,-74"
         style="fill:#247c64;fill-opacity:1;fill-rule:nonzero;stroke:none"
         transform="matrix(0.13333333,0,0,-0.13333333,0,2829.3333)" />
      <path
         id="path116"
         d="M 7039.59,5658.2 H 6460.5 c -40.87,0 -74.01,33.1 -74.01,74 v 67.9 c 0,40.9 33.14,74 74.01,74 h 579.09 c 40.88,0 74.01,-33.1 74.01,-74 v -67.9 c 0,-40.9 -33.13,-74 -74.01,-74"
         style="fill:#1c614d;fill-opacity:1;fill-rule:nonzero;stroke:none"
         transform="matrix(0.13333333,0,0,-0.13333333,0,2829.3333)" />
      <path
         id="path117"
         d="M 7039.59,5725.7 H 6460.5 c -40.87,0 -74.01,33.1 -74.01,74 v 67.8 c 0,40.9 33.14,74.1 74.01,74.1 h 579.09 c 40.88,0 74.01,-33.2 74.01,-74.1 v -67.8 c 0,-40.9 -33.13,-74 -74.01,-74"
         style="fill:#247c64;fill-opacity:1;fill-rule:nonzero;stroke:none"
         transform="matrix(0.13333333,0,0,-0.13333333,0,2829.3333)" />
      <path
         id="path118"
         d="m 7955.4,5291.2 h -579.09 c -40.89,0 -74.02,33.1 -74.02,74 v 67.9 c 0,40.9 33.13,74 74.02,74 h 579.09 c 40.87,0 74,-33.1 74,-74 v -67.9 c 0,-40.9 -33.13,-74 -74,-74"
         style="fill:#1c614d;fill-opacity:1;fill-rule:nonzero;stroke:none"
         transform="matrix(0.13333333,0,0,-0.13333333,0,2829.3333)" />
      <path
         id="path119"
         d="m 7955.4,5358.7 h -579.09 c -40.89,0 -74.02,33.1 -74.02,74 v 67.9 c 0,40.8 33.13,74 74.02,74 h 579.09 c 40.87,0 74,-33.2 74,-74 v -67.9 c 0,-40.9 -33.13,-74 -74,-74"
         style="fill:#247c64;fill-opacity:1;fill-rule:nonzero;stroke:none"
         transform="matrix(0.13333333,0,0,-0.13333333,0,2829.3333)" />
      <path
         id="path120"
         d="M 8871.19,5291.2 H 8292.1 c -40.87,0 -74,33.1 -74,74 v 67.9 c 0,40.9 33.13,74 74,74 h 579.09 c 40.89,0 74.02,-33.1 74.02,-74 v -67.9 c 0,-40.9 -33.13,-74 -74.02,-74"
         style="fill:#1c614d;fill-opacity:1;fill-rule:nonzero;stroke:none"
         transform="matrix(0.13333333,0,0,-0.13333333,0,2829.3333)" />
      <path
         id="path121"
         d="M 8871.19,5358.7 H 8292.1 c -40.87,0 -74,33.1 -74,74 v 67.9 c 0,40.8 33.13,74 74,74 h 579.09 c 40.89,0 74.02,-33.2 74.02,-74 v -67.9 c 0,-40.9 -33.13,-74 -74.02,-74"
         style="fill:#247c64;fill-opacity:1;fill-rule:nonzero;stroke:none"
         transform="matrix(0.13333333,0,0,-0.13333333,0,2829.3333)" />
      <path
         id="path122"
         d="m 7955.4,5658.2 h -579.09 c -40.89,0 -74.02,33.1 -74.02,74 v 67.9 c 0,40.9 33.13,74 74.02,74 h 579.09 c 40.87,0 74,-33.1 74,-74 v -67.9 c 0,-40.9 -33.13,-74 -74,-74"
         style="fill:#1c614d;fill-opacity:1;fill-rule:nonzero;stroke:none"
         transform="matrix(0.13333333,0,0,-0.13333333,0,2829.3333)" />
      <path
         id="path123"
         d="m 7955.4,5725.7 h -579.09 c -40.89,0 -74.02,33.1 -74.02,74 v 67.8 c 0,40.9 33.13,74.1 74.02,74.1 h 579.09 c 40.87,0 74,-33.2 74,-74.1 v -67.8 c 0,-40.9 -33.13,-74 -74,-74"
         style="fill:#247c64;fill-opacity:1;fill-rule:nonzero;stroke:none"
         transform="matrix(0.13333333,0,0,-0.13333333,0,2829.3333)" />
      <path
         id="path124"
         d="M 8871.19,5658.2 H 8292.1 c -40.87,0 -74,33.1 -74,74 v 67.9 c 0,40.9 33.13,74 74,74 h 579.09 c 40.89,0 74.02,-33.1 74.02,-74 v -67.9 c 0,-40.9 -33.13,-74 -74.02,-74"
         style="fill:#1c614d;fill-opacity:1;fill-rule:nonzero;stroke:none"
         transform="matrix(0.13333333,0,0,-0.13333333,0,2829.3333)" />
      <path
         id="path125"
         d="M 8871.19,5725.7 H 8292.1 c -40.87,0 -74,33.1 -74,74 v 67.8 c 0,40.9 33.13,74.1 74,74.1 h 579.09 c 40.89,0 74.02,-33.2 74.02,-74.1 v -67.8 c 0,-40.9 -33.13,-74 -74.02,-74"
         style="fill:#247c64;fill-opacity:1;fill-rule:nonzero;stroke:none"
         transform="matrix(0.13333333,0,0,-0.13333333,0,2829.3333)" />
      <path
         id="path126"
         d="M 18239.8,2554.4 H 2973.45 v 641.4 H 18239.8 v -641.4"
         style="fill:#28272f;fill-opacity:1;fill-rule:nonzero;stroke:none"
         transform="matrix(0.13333333,0,0,-0.13333333,0,2829.3333)" />
    </g>
  </g>
</svg>
