<?xml version="1.0" encoding="UTF-8" standalone="no"?>
<!-- Created with Inkscape (http://www.inkscape.org/) -->

<svg
   version="1.1"
   id="svg1"
   width="5163.96"
   height="5163.96"
   viewBox="0 0 5163.96 5163.96"
   sodipodi:docname="email.svg"
   inkscape:version="1.3 (0e150ed6c4, 2023-07-21)"
   xmlns:inkscape="http://www.inkscape.org/namespaces/inkscape"
   xmlns:sodipodi="http://sodipodi.sourceforge.net/DTD/sodipodi-0.dtd"
   xmlns="http://www.w3.org/2000/svg"
   xmlns:svg="http://www.w3.org/2000/svg">
  <defs
     id="defs1" />
  <sodipodi:namedview
     id="namedview1"
     pagecolor="#ffffff"
     bordercolor="#000000"
     borderopacity="0.25"
     inkscape:showpageshadow="2"
     inkscape:pageopacity="0.0"
     inkscape:pagecheckerboard="0"
     inkscape:deskcolor="#d1d1d1"
     inkscape:zoom="0.029166327"
     inkscape:cx="2931.4627"
     inkscape:cy="342.86113"
     inkscape:window-width="1505"
     inkscape:window-height="1080"
     inkscape:window-x="2267"
     inkscape:window-y="128"
     inkscape:window-maximized="0"
     inkscape:current-layer="g1">
    <inkscape:page
       x="0"
       y="0"
       inkscape:label="1"
       id="page1"
       width="5163.96"
       height="5163.96"
       margin="0"
       bleed="0"
       inkscape:export-filename="strathearngeeks.github.io/strath_geeks_theme/assets/images/email.svg"
       inkscape:export-xdpi="96"
       inkscape:export-ydpi="96" />
  </sodipodi:namedview>
  <g
     id="g1"
     inkscape:groupmode="layer"
     inkscape:label="1">
    <path
       id="path2"
       d="m 2581.9733,5163.96 c 1422.1199,0 2581.9866,-1159.8666 2581.9866,-2581.9866 C 5163.9599,1159.8801 4004.0932,1.29099e-4 2581.9733,1.29099e-4 1159.8773,1.29099e-4 0,1159.8801 0,2581.9734 0,4004.0934 1159.8773,5163.96 2581.9733,5163.96"
       style="fill:#ffd23f;fill-opacity:1;fill-rule:evenodd;stroke:none;stroke-width:0.133333" />
    <path
       id="path3"
       d="m 2579.1066,3470.4 c -114.4,0 -221.4933,-35.4266 -301.6267,-99.8266 L 1054.928,2301.4534 c -8.6027,-6.9067 -11.6307,-20.1333 -11.6307,-31.2 0,-11.0533 5.0053,-21.48 13.62,-28.4133 L 2559.1599,1034.7468 c 13.3067,-10.7067 32.32,-10.7067 45.6534,0 l 1502.2533,1207.1066 c 8.6133,6.9067 13.6266,17.36 13.6266,28.4267 0,11.0666 -2.2533,22.88 -10.8533,29.8 L 2893.2533,3365.1734 C 2808.7599,3433.0267 2697.1999,3470.4 2579.1066,3470.4"
       style="fill:#247c64;fill-opacity:1;fill-rule:evenodd;stroke:none;stroke-width:0.133333" />
    <path
       id="path4"
       d="m 2579.1066,3470.4 c -114.4,0 -221.4933,-35.4266 -301.6267,-99.8266 L 1054.928,2301.4534 c -8.6027,-6.9067 -11.6307,-20.1333 -11.6307,-31.2 0,-11.0533 5.0053,-21.48 13.62,-28.4133 l 4.4373,-3.5734 36.784,31.2 1209.7947,972.0933 c 75.9733,61.0667 174.6133,89.12 271.1733,89.12 101.4267,0 204.04,-30.5066 283.6933,-94.5333 l 1209.5467,-971.9066 30.4533,-25.8267 4.2667,3.44 c 8.6133,6.9067 13.6266,17.36 13.6266,28.4267 0,11.0666 -2.2533,22.88 -10.8533,29.8 L 2893.2533,3365.1734 C 2808.7599,3433.0267 2697.1999,3470.4 2579.1066,3470.4"
       style="fill:#144a3d;fill-opacity:1;fill-rule:evenodd;stroke:none;stroke-width:0.133333" />
    <path
       id="path5"
       d="m 1731.4933,1397.2001 h 1700.9333 c 66.8933,0 121.6533,54.7467 121.6533,121.6667 v 1731.1466 c 0,66.92 -54.76,121.6533 -121.6533,121.6533 H 1731.4933 c -66.9067,0 -121.6533,-54.7333 -121.6533,-121.6533 V 1518.8668 c 0,-66.92 54.7466,-121.6667 121.6533,-121.6667"
       style="fill:#e9e8e7;fill-opacity:1;fill-rule:evenodd;stroke:none;stroke-width:0.133333" />
    <path
       id="path6"
       d="m 3554.0799,2680.6801 v 569.3333 c 0,66.92 -54.76,121.6533 -121.6533,121.6533 H 1731.4933 c -66.9067,0 -121.6533,-54.7333 -121.6533,-121.6533 v -569.3733 l 698.0933,560.9199 c 75.9733,61.0667 174.6133,89.12 271.1733,89.12 101.4267,0 204.04,-30.5066 283.6933,-94.5333 l 691.28,-555.4666"
       style="fill:#d0d0ce;fill-opacity:1;fill-rule:evenodd;stroke:none;stroke-width:0.133333" />
    <path
       id="path7"
       d="m 3173.9066,1909.6134 h -1183.84 c -20.1333,0 -36.4533,-16.3333 -36.4533,-36.4533 0,-20.1067 16.32,-36.4534 36.4533,-36.4534 h 1183.8667 c 20.12,0 36.44,16.3467 36.44,36.4534 0,20.12 -16.3467,36.4533 -36.4667,36.4533"
       style="fill:#d0d0ce;fill-opacity:1;fill-rule:evenodd;stroke:none;stroke-width:0.133333" />
    <path
       id="path8"
       d="m 3173.9066,2274.9334 h -1183.84 c -20.1333,0 -36.4533,-16.3333 -36.4533,-36.44 0,-20.1333 16.32,-36.4533 36.4533,-36.4533 h 1183.8667 c 20.12,0 36.44,16.32 36.44,36.4533 0,20.1067 -16.3467,36.44 -36.4667,36.44"
       style="fill:#d0d0ce;fill-opacity:1;fill-rule:evenodd;stroke:none;stroke-width:0.133333" />
    <path
       id="path9"
       d="m 3173.9066,2640.2401 h -1183.84 c -20.1333,0 -36.4533,-16.36 -36.4533,-36.4667 0,-20.1067 16.32,-36.44 36.4533,-36.44 h 1183.8667 c 20.12,0 36.44,16.3333 36.44,36.44 0,20.16 -16.3467,36.4667 -36.4667,36.4667"
       style="fill:#d0d0ce;fill-opacity:1;fill-rule:evenodd;stroke:none;stroke-width:0.133333" />
    <path
       id="path10"
       d="M 3686.2532,4137.2534 H 1477.68 c -239.5254,0 -434.408,-194.8667 -434.408,-434.4134 V 2270.2534 c 0,-10.3733 4.3506,-19.7467 11.3093,-26.3867 -7.168,6.8534 -11.284,16.36 -11.284,26.3867 0,11.0667 5.0053,21.52 13.62,28.4267 l 1220.5626,980.7866 c 80.1334,64.36 187.2267,99.8133 301.6267,99.8133 118.0933,0 229.6533,-37.4 314.1467,-105.2266 l 1213.8133,-975.36 c 8.16,-6.56 13.08,-16.28 13.5733,-26.6933 V 3702.84 c 0.027,239.5467 -194.8667,434.4134 -434.3867,434.4134"
       style="fill:#247c64;fill-opacity:1;fill-rule:evenodd;stroke:none;stroke-width:0.133333" />
  </g>
</svg>
