<?xml version="1.0" encoding="UTF-8" standalone="no"?>
<!-- Created with Inkscape (http://www.inkscape.org/) -->

<svg
   version="1.1"
   id="svg1"
   width="2229.3586"
   height="2227.4026"
   viewBox="0 0 2229.3586 2227.4026"
   sodipodi:docname="vecteezy_location-icon-logo-in-flat-logo-for-business-stock-vector_21383213.eps"
   xmlns:inkscape="http://www.inkscape.org/namespaces/inkscape"
   xmlns:sodipodi="http://sodipodi.sourceforge.net/DTD/sodipodi-0.dtd"
   xmlns="http://www.w3.org/2000/svg"
   xmlns:svg="http://www.w3.org/2000/svg">
  <defs
     id="defs1" />
  <sodipodi:namedview
     id="namedview1"
     pagecolor="#ffffff"
     bordercolor="#000000"
     borderopacity="0.25"
     inkscape:showpageshadow="2"
     inkscape:pageopacity="0.0"
     inkscape:pagecheckerboard="0"
     inkscape:deskcolor="#d1d1d1" />
  <g
     id="g1"
     inkscape:groupmode="layer"
     inkscape:label="1"
     transform="translate(-883.188,-568.25342)">
    <path
       id="path4"
       d="m 14984,25758.1 c -2368.3,-59.8 -4338.8,-876 -5911.46,-2448.7 C 7499.88,21736.8 6683.67,19766.3 6623.91,17398 c 2.22,-771.7 101.75,-1512.5 298.63,-2222.4 l 358.36,-1031.7 c 284.26,-669 645.9,-1287.1 1084.96,-1854.5 1370.31,-1755 3198.24,-2813.38 5483.74,-3175.1 380.7,-41.14 753.5,-61.72 1118.3,-61.72 1930.2,0 3638.4,575.78 5124.7,1727.32 1755.1,1370.3 2813.5,3198.2 3175.2,5483.7 l 76.3,1134.4 c -59.7,2368.3 -875.9,4338.8 -2448.6,5911.4 -1572.6,1572.7 -3543.1,2388.9 -5911.5,2448.7 z"
       style="fill:#ee4266;fill-opacity:1;fill-rule:nonzero;stroke:none"
       transform="matrix(0.13333333,0,0,-0.13333333,0,4002.6667)" />
    <path
       id="path5"
       d="m 16812.3,22475.6 c -888,-205.3 -2109.1,-418.8 -3663,-640.5 l -1179.1,-1695.3 584,-2137.8 1194.8,-2452 1212.2,-3663.7 4566.1,-1509.7 c 191.9,125.6 380.3,260 565.3,403.3 1755.1,1370.3 2813.5,3198.2 3175.2,5483.7 l 76.3,1134.4 c -28.2,1116.8 -224.6,2145.2 -589.1,3085 z"
       style="fill:#af314b;fill-opacity:1;fill-rule:nonzero;stroke:none"
       transform="matrix(0.13333333,0,0,-0.13333333,0,4002.6667)" />
    <path
       id="path6"
       d="m 14915.9,21458.6 c 1253,0 2268.6,-1015.6 2268.6,-2268.4 0,-1253 -1015.6,-2268.7 -2268.5,-2268.7 -1252.9,0 -2268.5,1015.7 -2268.5,2268.7 0,1252.8 1015.6,2268.4 2268.4,2268.4 z m -157.5,1518.4 h -0.4 l -333.1,-26.3 h -0.5 l -329.4,-55.5 h -0.5 l -323.4,-84 -0.4,-0.3 -314.7,-111.9 -0.5,-0.3 -303.9,-139.5 h -0.3 l -260,-146.6 h -0.3 l -247.8,-166.7 -0.3,-0.3 -234,-185.7 h -0.3 l -218.6,-203.3 -0.4,-0.3 -202.1,-220.1 -0.2,-0.3 -184.1,-234.9 -0.3,-0.3 -165.1,-248.9 -0.3,-0.3 -145,-261 -0.1,-0.3 -124.2,-271.5 -0.1,-0.6 -102.6,-280.5 -0.1,-0.3 -80.2,-287.6 -0.1,-0.3 -57.3,-292.9 -0.1,-0.6 -34.1,-296.6 v -0.4 l -10.8,-298.4 v -0.3 l 12.7,-298.5 0.1,-0.3 36.1,-296.6 v -0.3 l 59.3,-292.6 v -0.6 l 82.1,-287 0.1,-0.3 105.9,-284.2 c 1.3,-3.4 2.4,-6.6 3.2,-10 0.4,-0.9 0.9,-1.8 1.7,-2.5 l -0.4,0.1 c 201.2,-452.5 403.8,-906.9 1011.5,-1891.5 593.3,-961.1 1571.3,-2425.3 2563.3,-3908.3 0.9,-1.5 2.5,-2.2 4.1,-2.2 0.4,0 0.9,0 1.4,0.3 1.2,0 2,1 2.7,1.9 1043.3,1594.3 2070.9,3167.8 2656.6,4170.2 593.1,1015.6 729.9,1439.9 861.8,1857.4 h -0.2 c 0.6,0.6 1.1,1.6 1.1,2.8 0.7,6.5 2.1,13.3 4,19.8 l 95.5,325.8 0.2,0.3 65.3,327.6 0.1,0.6 36.5,331.9 v 0.6 l 7.1,333.8 v 0.7 l -22.3,333.4 v 0.4 l -51.4,330 v 0.7 l -80.3,324.1 -0.1,0.4 -108.3,316.1 -0.2,0.3 -135.7,305.6 -0.2,0.3 -162,292.3 -0.3,0.3 -187,276.7 -0.3,0.3 -210.6,259.4 -0.3,0.4 -232.5,240.2 h -0.4 l -252.7,218.5 -0.3,0.3 -271,195.5 -0.3,0.4 -287.2,170.7 h 0.1 c -0.1,0.3 -0.4,0.3 -0.5,0.3 l -301,145.1 h -0.3 l -312.6,118.4 h -0.4 l -321.8,90.2 h 0.1 c -0.2,0 -0.4,0 -0.5,0.3 l -328.4,61.4 -0.4,-0.1 -332.5,32.6 h 0.1 c -0.1,0 -0.4,0 -0.5,0 z"
       style="fill:#fefefe;fill-opacity:1;fill-rule:nonzero;stroke:none"
       transform="matrix(0.13333333,0,0,-0.13333333,0,4002.6667)" />
  </g>
</svg>
