<?xml version="1.0" encoding="UTF-8" standalone="no"?>
<!-- Created with Inkscape (http://www.inkscape.org/) -->

<svg
   version="1.1"
   id="svg1"
   width="3200"
   height="3200"
   viewBox="0 0 3200 3200"
   sodipodi:docname="man.svg"
   inkscape:version="1.3.2 (091e20ef0f, 2023-11-25, custom)"
   xmlns:inkscape="http://www.inkscape.org/namespaces/inkscape"
   xmlns:sodipodi="http://sodipodi.sourceforge.net/DTD/sodipodi-0.dtd"
   xmlns="http://www.w3.org/2000/svg"
   xmlns:svg="http://www.w3.org/2000/svg">
  <defs
     id="defs1" />
  <sodipodi:namedview
     id="namedview1"
     pagecolor="#ffffff"
     bordercolor="#000000"
     borderopacity="0.25"
     inkscape:showpageshadow="2"
     inkscape:pageopacity="0.0"
     inkscape:pagecheckerboard="0"
     inkscape:deskcolor="#d1d1d1"
     inkscape:zoom="0.1065"
     inkscape:cx="-248.82629"
     inkscape:cy="1417.8404"
     inkscape:window-width="1505"
     inkscape:window-height="1080"
     inkscape:window-x="2327"
     inkscape:window-y="57"
     inkscape:window-maximized="0"
     inkscape:current-layer="g1">
    <inkscape:page
       x="0"
       y="0"
       inkscape:label="1"
       id="page1"
       width="3200"
       height="3200"
       margin="0"
       bleed="0" />
  </sodipodi:namedview>
  <g
     id="g1"
     inkscape:groupmode="layer"
     inkscape:label="1"
     transform="translate(-400,-400.00009)">
    <g
       id="group-R5">
      <path
         id="path2"
         d="m 15000,27000 c 6627.4,0 12000,-5372.6 12000,-12000 0,-6627.4 -5372.6,-12000 -12000,-12000 -6627.41,0 -12000,5372.6 -12000,12000 0,6627.4 5372.59,12000 12000,12000"
         style="fill:#ffd140;fill-opacity:1;fill-rule:nonzero;stroke:none"
         transform="matrix(0.13333333,0,0,-0.13333333,0,4000)" />
      <path
         id="path3"
         d="m 19672.6,16872 6.7,20.1 52.8,56.1 64.9,64.9 30.2,28.5 28.7,26.1 27.3,23.7 26,21.4 c 133.2,106.7 312.8,135.3 472.5,75.2 l 21.8,-8.7 21.1,-9.2 10.3,-4.8 10.1,-4.9 9.9,-5.1 9.7,-5.2 9.6,-5.3 9.4,-5.5 9.2,-5.6 9,-5.7 8.9,-5.8 8.7,-6 8.5,-6 8.4,-6.2 8.2,-6.3 8,-6.5 7.9,-6.5 7.7,-6.7 7.5,-6.7 7.3,-6.9 7.2,-7 7,-7 6.9,-7.2 6.7,-7.3 6.5,-7.4 6.4,-7.5 6.2,-7.6 6.1,-7.7 5.9,-7.7 5.7,-7.9 5.6,-7.9 5.5,-8.1 5.2,-8.1 5.2,-8.2 4.9,-8.4 4.9,-8.3 4.6,-8.5 4.5,-8.6 8.6,-17.3 8,-17.6 7.4,-17.9 6.8,-18.2 6.3,-18.4 5.7,-18.7 5.1,-19 4.6,-19.1 4,-19.4 3.5,-19.5 2.9,-19.8 2.5,-19.9 1.9,-20 1.4,-20.2 0.9,-20.4 0.4,-20.4 -0.2,-20.6 -0.5,-20.7 -1.1,-20.7 -1.6,-20.8 -2,-20.8 -2.5,-20.9 -2.9,-21 -3.4,-20.9 -3.8,-20.9 -4.2,-21 -4.7,-20.9 -5.1,-20.8 -5.5,-20.9 -6,-20.7 -6.3,-20.7 -6.7,-20.6 -7.1,-20.5 -7.5,-20.4 -7.9,-20.2 -8.2,-20.1 -8.6,-20 -9,-19.8 -9.3,-19.6 -9.6,-19.4 -10,-19.3 -10.3,-19 -10.6,-18.7 -10.9,-18.6 -12,-19.3 -12.2,-19.1 -12.6,-18.8 -12.9,-18.5 -26.7,-36.4 -27.8,-35.5 -28.8,-34.7 -29.8,-34 -30.7,-33.4 -31.5,-32.8 -64.9,-64.6 -274.2,-255.4 -68.8,-66.8 -67.5,-69.3 -33,-35.8 -32.5,-36.8 -31.8,-37.8 -31,-38.8 -30.3,-40.1 -29.3,-41.3 -28.3,-42.7 -27.2,-44.1 -13.1,-22.6 -12.9,-23.1 -12.6,-23.4 -12.2,-23.9 -70.3,-149.6 -24.2,-49.1 -12.6,-23.9 -13.2,-23.2 -6.8,-11.4 -6.9,-11.2 -7.2,-11 -7.3,-10.7 -7.5,-10.5 -7.7,-10.3 -8,-10 -8.2,-9.7 -8.4,-9.5 -8.7,-9.1 -8.9,-8.8 -4.6,-4.2 -4.6,-4.2 -6.9,-5.9 -7,-5.8 -7.2,-5.5 -7.2,-5.3 -7.5,-5.1 -7.5,-5 -7.7,-4.7 -7.7,-4.5 -7.9,-4.2 -8,-4.1 -8.1,-3.8 -8.1,-3.5 -8.3,-3.4 -8.3,-3 -8.4,-2.9 -8.5,-2.5 -8.5,-2.3 -8.6,-2.1 -8.6,-1.8 -8.7,-1.5 -8.7,-1.2 -8.7,-0.9 -8.8,-0.7 -8.8,-0.3 -8.8,-0.1 -8.8,0.3 -4.4,0.2 -4.4,0.3 -4.4,0.4 -4.4,0.5 -4.4,0.6 -4.4,0.6 -4.4,0.7 -4.4,0.8 -4.4,0.9 -4.4,1 -4.3,1 -4.4,1.1 -4.4,1.2 -4.3,1.3 -4.3,1.4 -4.4,1.5 -4.3,1.6 -4.3,1.6 -4.3,1.7 -4.3,1.8 -4.2,2 -4.3,1.9 -4.2,2.1 -4.3,2.2 -4.2,2.3 -4.2,2.3 -4.1,2.5 -4.2,2.5 -4.1,2.7 -4.1,2.7 -4.1,2.8 -4.1,3 -4,3 -4.1,3.1 -4,3.2 -3.9,3.3 -4,3.4 -3.9,3.6 -7.8,7.3 -7.6,7.7 -7.6,8.1 -7.4,8.6 -7.3,8.9 -7.1,9.4 -7,9.8 -6.9,10.3 -6.7,10.7 -6.5,11.1 -6.4,11.5 -6.2,12.1 -6.1,12.4 -5.8,13 -5.7,13.4 -5.5,13.8 -5.2,14.4 -5.1,14.8 -4.8,15.3 -4.2,1.6 481.4,1279.3 243.2,662.9 64.8,192.3"
         style="fill:#e5c79c;fill-opacity:1;fill-rule:nonzero;stroke:none"
         transform="matrix(0.13333333,0,0,-0.13333333,0,4000)" />
      <path
         id="path4"
         d="m 11120.4,14727.8 -4.9,-15.4 -5.1,-14.8 -5.2,-14.3 -5.5,-13.9 -5.7,-13.4 -5.8,-12.9 -6.1,-12.5 -6.2,-12 -6.3,-11.6 -6.6,-11.1 -6.7,-10.7 -6.9,-10.2 -7,-9.8 -7.1,-9.4 -7.3,-9 -7.4,-8.5 -7.5,-8.1 -7.7,-7.8 -7.8,-7.3 -3.9,-3.5 -3.9,-3.4 -4,-3.3 -4,-3.2 -4,-3.2 -4.1,-3 -4.1,-2.9 -4.1,-2.8 -4.1,-2.8 -4.1,-2.6 -4.1,-2.6 -4.2,-2.4 -4.2,-2.4 -4.2,-2.2 -4.2,-2.2 -4.3,-2.1 -4.2,-2 -4.3,-1.9 -4.3,-1.8 -4.3,-1.8 -4.3,-1.6 -4.3,-1.6 -4.3,-1.4 -4.4,-1.4 -4.3,-1.3 -4.4,-1.2 -4.3,-1.1 -4.4,-1.1 -4.4,-0.9 -4.4,-0.9 -4.4,-0.8 -4.4,-0.7 -4.4,-0.7 -4.4,-0.5 -4.4,-0.5 -4.4,-0.4 -4.4,-0.3 -4.4,-0.3 -8.8,-0.2 h -8.8 l -8.8,0.4 -8.7,0.6 -8.8,1 -8.7,1.2 -8.7,1.5 -8.6,1.8 -8.6,2 -8.5,2.3 -8.5,2.6 -8.4,2.8 -8.3,3.1 -8.2,3.3 -8.2,3.6 -8.1,3.8 -8,4 -7.8,4.3 -7.8,4.5 -7.7,4.7 -7.5,4.9 -7.4,5.1 -7.3,5.4 -7.2,5.5 -7,5.7 -6.9,5.9 -4.6,4.2 -4.6,4.3 -8.9,8.8 -8.7,9.1 -8.4,9.4 -8.2,9.8 -7.9,10 -7.8,10.2 -7.5,10.5 -7.3,10.8 -7.1,11 -7,11.1 -6.8,11.4 -13.2,23.3 -12.6,23.9 -24.2,49 -70.3,149.7 -12.2,23.8 -12.6,23.5 -12.8,23 -13.2,22.6 -27.2,44.2 -28.3,42.7 -29.3,41.3 -30.2,40 -31.1,38.9 -31.8,37.8 -32.5,36.7 -33,35.9 -67.5,69.3 -68.7,66.7 -274.3,255.4 -64.9,64.6 -31.5,32.9 -30.7,33.4 -29.8,34 -28.8,34.7 -27.8,35.5 -26.7,36.4 -12.9,18.5 -12.6,18.8 -12.2,19.1 -11.9,19.3 -11,18.5 -10.6,18.8 -10.3,19 -10,19.2 -9.6,19.4 -9.3,19.7 -9,19.8 -8.6,19.9 -8.2,20.1 -7.9,20.3 -7.5,20.4 -7.1,20.5 -6.7,20.5 -6.3,20.7 -5.9,20.8 -5.5,20.8 -5.2,20.9 -4.6,20.9 -4.3,20.9 -3.8,21 -3.4,20.9 -2.9,20.9 -2.5,20.9 -2,20.9 -1.5,20.8 -1.1,20.7 -0.6,20.7 -0.1,20.5 0.4,20.5 0.8,20.3 1.4,20.2 1.9,20.1 2.5,19.9 2.9,19.7 3.5,19.6 4,19.3 4.6,19.2 5.1,18.9 5.7,18.7 6.3,18.4 6.8,18.2 7.4,17.9 8,17.7 8.6,17.3 4.5,8.5 4.7,8.5 4.8,8.4 5,8.3 5.1,8.2 5.3,8.2 5.4,8 5.6,8 5.7,7.8 5.9,7.8 6.1,7.7 6.2,7.6 6.4,7.5 6.5,7.3 6.7,7.3 6.9,7.2 7,7.1 7.2,7 7.4,6.8 7.5,6.8 7.7,6.6 7.8,6.6 8,6.4 8.2,6.3 8.4,6.2 8.5,6.1 8.7,5.9 8.9,5.9 9,5.7 9.2,5.6 9.4,5.4 9.6,5.4 9.8,5.2 9.9,5 10.1,5 10.3,4.8 21,9.2 21.9,8.6 c 159.7,60.2 339.2,31.6 472.4,-75.1 l 26,-21.5 27.3,-23.7 28.8,-26 30.1,-28.6 64.9,-64.8 71.3,-75.9 0.1,-0.1 c 262.5,-705.6 518.8,-1413.5 768.9,-2123.5 v -0.2 c 1.5,-4.2 3,-8.4 4.5,-12.6"
         style="fill:#e5c79c;fill-opacity:1;fill-rule:nonzero;stroke:none"
         transform="matrix(0.13333333,0,0,-0.13333333,0,4000)" />
      <path
         id="path5"
         d="m 24690.1,7921.7 -129.9,265.6 c -426.6,872.6 -1229.8,1501.4 -2179.4,1706.1 -871.7,188 -1750.4,342.5 -2634,463.4 l -576.5,78.9 -39.4,29.5 -41.7,29.4 -44,29.2 -46.2,29 -48.4,28.9 -50.7,28.5 -52.9,28.4 -55.1,28.1 -57.3,27.9 -59.5,27.6 -125.4,54.4 -134,53.2 -142.3,51.9 c -139.8,-82.9 -282.7,-160.4 -428.5,-232.5 l 155,-917.1 C 17669,9089.7 17206.2,8524.4 16641.8,8073.2 16159.7,7685.3 15599.7,7405.6 15000,7253.1 c -599.7,152.5 -1159.7,432.2 -1641.8,820.1 -564.4,451.2 -1027.2,1016.5 -1358.1,1658.9 l 155,917.1 c -145.7,72.1 -288.7,149.6 -428.5,232.5 l -142.3,-51.9 -134,-53.2 -125.4,-54.4 -59.5,-27.6 -57.3,-27.9 -55.1,-28.1 -52.9,-28.4 -50.7,-28.5 -48.4,-28.9 -46.2,-29 -44,-29.2 -41.7,-29.4 -39.4,-29.5 -576.5,-78.9 C 9369.6,10235.9 8490.9,10081.4 7619.2,9893.4 6669.6,9688.7 5866.4,9059.9 5439.8,8187.3 l -129.9,-265.6 -0.6,-0.5 c 1927.6,-2634.4 4903.4,-4453.4 8313.5,-4843 335.5,-38.4 675.1,-62.9 1018.4,-72.9 119.2,-3.5 238.8,-5.3 358.8,-5.3 120,0 239.6,1.8 358.8,5.3 343.3,10 682.9,34.5 1018.4,72.9 3410.1,389.6 6385.9,2208.6 8313.5,4843 l -0.6,0.5"
         style="fill:#48a5e5;fill-opacity:1;fill-rule:nonzero;stroke:none"
         transform="matrix(0.13333333,0,0,-0.13333333,0,4000)" />
      <path
         id="path6"
         d="m 20194.4,8444.4 c -239.1,711.5 -584.3,1382.9 -1024.1,1991.3 l -39.4,29.5 -41.7,29.4 -44,29.2 -46.2,29 -48.4,28.9 -50.7,28.5 -52.9,28.4 -55.1,28.1 -57.3,27.9 -59.5,27.6 -125.4,54.4 -134,53.2 -142.3,51.9 -273.5,-1149.6 C 17669,9089.7 17206.2,8524.4 16641.8,8073.2 16159.7,7685.3 15599.7,7405.6 15000,7253.1 c -599.7,152.5 -1159.7,432.2 -1641.8,820.1 -564.4,451.2 -1027.2,1016.5 -1358.1,1658.9 l -273.5,1149.6 -142.3,-51.9 -134,-53.2 -125.4,-54.4 -59.5,-27.6 -57.3,-27.9 -55.1,-28.1 -52.9,-28.4 -50.7,-28.5 -48.4,-28.9 -46.2,-29 -44,-29.2 -41.7,-29.4 -39.4,-29.5 c -439.8,-608.4 -785,-1279.8 -1024.1,-1991.3 l 1418.8,-667 -716,-1286.7 195.5,-199 198.8,-195.2 403.2,-381.3 797.3,-742.8 376.4,-371.1 178.7,-187.5 171,-189.5 82.2,-95.8 79.9,-96.5 77.3,-97.3 74.8,-98.2 71.9,-99.2 69,-100.2 66,-101.4 62.8,-102.5 209.7,-353.9 -0.1,-1.1 c 335.5,-38.4 675.1,-62.9 1018.4,-72.9 119.2,-3.5 238.8,-5.3 358.8,-5.3 120,0 239.6,1.8 358.8,5.3 343.3,10 682.9,34.5 1018.4,72.9 l -0.1,1.1 209.7,353.9 62.8,102.5 66,101.4 69,100.2 72,99.2 74.7,98.2 77.3,97.3 79.9,96.5 82.2,95.8 171,189.5 178.7,187.5 376.4,371.1 797.3,742.8 403.2,381.3 198.8,195.2 195.6,199 -716.1,1286.7 1418.8,667"
         style="fill:#15659b;fill-opacity:1;fill-rule:nonzero;stroke:none"
         transform="matrix(0.13333333,0,0,-0.13333333,0,4000)" />
      <path
         id="path7"
         d="M 17999.9,9732.1 C 17907.1,9342 17794.7,8956.8 17663.1,8578 l -117.3,-320.5 -127.9,-318.7 -136.5,-317.5 -143.6,-316.6 -611.2,-1263.9 -304.1,-635.6 -145.8,-320 -139.3,-321.8 -131.3,-324.2 -121.5,-326.8 -56.5,-164.5 -53.5,-165.3 -50.2,-166.1 -46.7,-167 -118.9,-444.1 v -0.1 c -119.2,-3.5 -238.8,-5.3 -358.8,-5.3 -120,0 -239.6,1.8 -358.8,5.3 v 0.1 l -118.9,444.1 -46.7,167 -50.2,166.1 -53.5,165.3 -56.5,164.5 -121.5,326.8 -131.3,324.2 -139.3,321.8 -145.8,320 -304.1,635.6 -611.2,1263.9 -143.6,316.6 -136.5,317.5 -127.9,318.7 -117.3,320.5 c -131.6,378.8 -244,764 -336.8,1154.1 330.9,-642.4 793.7,-1207.7 1358.1,-1658.9 482.1,-387.9 1042.1,-667.6 1641.8,-820.1 599.7,152.5 1159.7,432.2 1641.8,820.1 564.4,451.2 1027.2,1016.5 1358.1,1658.9"
         style="fill:#dddddd;fill-opacity:1;fill-rule:nonzero;stroke:none"
         transform="matrix(0.13333333,0,0,-0.13333333,0,4000)" />
      <path
         id="path8"
         d="m 17601.9,12086.6 398,-2354.5 C 17669,9089.7 17206.2,8524.4 16641.8,8073.2 16159.7,7685.3 15599.7,7405.6 15000,7253.1 c -599.7,152.5 -1159.7,432.2 -1641.8,820.1 -564.4,451.2 -1027.2,1016.5 -1358.1,1658.9 l 397.9,2354.6 61.2,-77.8 167.1,-208.1 173.6,-204.5 89.7,-99.8 91.7,-97.7 94,-95.2 96.4,-92.2 98.9,-88.8 50.4,-43.1 51.2,-42 51.9,-41 52.6,-39.9 53.3,-38.7 54.1,-37.6 54.9,-36.3 55.7,-35 56.5,-33.7 57.4,-32.2 58.2,-30.8 59.2,-29.3 60,-27.8 60.9,-26.1 c 610.5,-251.8 1295.7,-251.8 1906.2,0 l 60.9,26.1 60.1,27.8 59.1,29.3 58.2,30.8 57.4,32.2 56.5,33.7 55.7,35 54.9,36.3 54.1,37.6 53.3,38.7 52.6,39.9 51.9,41 51.2,42 50.4,43.1 98.9,88.8 96.4,92.2 94,95.2 91.7,97.7 89.7,99.8 173.6,204.5 167.1,208.1 61.1,77.7"
         style="fill:#e5c79c;fill-opacity:1;fill-rule:nonzero;stroke:none"
         transform="matrix(0.13333333,0,0,-0.13333333,0,4000)" />
      <path
         id="path9"
         d="m 17999.9,9732.1 v 0 0 l -155,917.1 c 145.8,72.1 288.7,149.6 428.5,232.5 l -273.5,-1149.6 v 0"
         style="fill:#1d425c;fill-opacity:1;fill-rule:nonzero;stroke:none"
         transform="matrix(0.13333333,0,0,-0.13333333,0,4000)" />
      <path
         id="path10"
         d="m 12000.1,9732.1 v 0 l -273.5,1149.6 c 139.8,-82.9 282.8,-160.4 428.5,-232.5 l -155,-917.1 v 0"
         style="fill:#1d425c;fill-opacity:1;fill-rule:nonzero;stroke:none"
         transform="matrix(0.13333333,0,0,-0.13333333,0,4000)" />
      <path
         id="path11"
         d="m 12000.1,9732.1 v 0 0 l 155,917.1 v 0 l -155,-917.1"
         style="fill:#5c503e;fill-opacity:1;fill-rule:nonzero;stroke:none"
         transform="matrix(0.13333333,0,0,-0.13333333,0,4000)" />
      <path
         id="path12"
         d="m 20186.5,19079.2 0.4,-80.8 -1.2,-81 -2.7,-81.3 -4.3,-81.4 -5.8,-81.7 -15.8,-163.9 -21.2,-164.6 -26.4,-165.2 -31.1,-165.8 -35.6,-166.1 -39.7,-166.5 -43.4,-166.8 -46.9,-166.9 -102.7,-334 -112.3,-333.5 -243.2,-662.9 -485,-1289 -129,-353 -138.1,-348.2 -148.6,-342.6 -78.7,-168.9 -81.8,-167.1 -85.3,-165.3 -88.7,-163.3 -92.5,-161.3 -96.5,-159 -100.5,-156.8 -104.8,-154.4 -109.2,-151.9 -113.9,-149.3 -61.2,-77.8 -167.1,-208.1 -173.6,-204.5 -89.7,-99.8 -91.7,-97.7 -94,-95.2 -96.4,-92.2 -98.9,-88.8 -50.4,-43.1 -51.2,-42 -51.9,-41 -52.6,-39.9 -53.3,-38.7 -54.1,-37.6 -54.9,-36.3 -55.7,-35 -56.5,-33.7 -57.4,-32.2 -58.2,-30.8 -59.1,-29.3 -60.1,-27.8 -60.9,-26.1 c -610.5,-251.8 -1295.7,-251.8 -1906.2,0 l -60.9,26.1 -60,27.8 -59.2,29.3 -58.2,30.8 -57.4,32.2 -56.5,33.7 -55.7,35 -54.9,36.3 -54.1,37.6 -53.3,38.7 -52.6,39.9 -51.9,41 -51.2,42 -50.4,43.1 -98.9,88.8 -96.4,92.2 -94,95.2 -91.7,97.7 -89.7,99.8 -173.6,204.5 -167.1,208.1 -61.2,77.8 -113.9,149.3 -109.2,151.9 -104.8,154.4 -100.5,156.8 -96.4,159 -92.6,161.3 -88.7,163.3 -85.3,165.3 -81.8,167.1 -78.7,168.9 -148.6,342.6 -138.1,348.2 -129,353 c -292,829.3 -592.5,1655.7 -901.4,2478.9 l -52,175.7 -48.5,175.7 -44.6,175.5 -40.3,175.1 -35.7,174.8 -30.5,174.2 -25.1,173.6 -19.3,172.9 -7.3,86.1 -5.7,85.9 -4,85.7 -2.41,85.4 -0.49,85.2 1.2,84.9 3.1,84.6 5,84.3 6.9,84 8.9,83.6 11,83.4 13.1,83 15.2,82.6 17.4,82.2 19.7,81.9 21.9,81.4 c 109.3,384 343.1,720.7 664.6,957.3 l 1.1,75.4 2.4,73.7 3.7,72.2 5.1,70.5 6.4,68.9 7.7,67.3 9,65.8 10.3,64.3 11.5,62.7 12.7,61.2 14,59.7 15.3,58.3 16.4,56.8 17.6,55.4 18.8,53.9 20,52.6 21.1,51.1 22.2,49.9 23.4,48.4 24.5,47.1 25.5,45.9 26.7,44.5 27.7,43.2 28.8,42 29.8,40.7 30.9,39.6 31.8,38.3 32.9,37.1 33.8,35.9 34.8,34.8 35.8,33.7 36.7,32.5 51.8,43.1 52.8,41 53.7,39 54.5,37 55.4,35 56.3,33.3 57,31.4 57.8,29.6 58.5,28 59.3,26.3 60,24.8 60.7,23.3 61.3,21.8 62,20.4 62.5,19.2 63.2,17.8 63.7,16.6 64.2,15.5 130,27.7 131.8,23.9 133.5,20.4 134.9,17.5 136.1,15 275.3,24.5 556.9,40.3 278.4,23.3 276.5,30.5 136.9,19.2 135.9,22.4 134.5,26.1 133.1,30.2 65.9,16.8 65.4,18.1 65,19.4 64.5,20.6 64,22.1 63.4,23.6 62.9,25 62.2,26.6 c 100.1,44.4 198.6,92.1 295.4,143.1 l -44,-68.9 -46.2,-67.6 -48.5,-66 -50.7,-64.5 -52.9,-62.6 -27.3,-30.7 -27.8,-30.1 -28.4,-29.7 -28.8,-29.1 -29.4,-28.7 -29.9,-28.1 -33.2,-30 -33.8,-29.3 -34.4,-28.7 -35,-28 -35.4,-27.3 -36,-26.6 -36.5,-26 -36.9,-25.2 -37.5,-24.6 -37.8,-23.8 -38.3,-23.2 -38.6,-22.4 -39.1,-21.8 -39.4,-21 -39.7,-20.3 -40.1,-19.5 107.5,16.2 107.3,18.4 107,20.7 106.7,22.9 106.3,25.2 105.7,27.5 105.2,29.7 104.6,31.9 103.8,34.3 103.1,36.4 102.2,38.8 101.4,41.1 100.3,43.3 99.3,45.6 98.2,47.9 97,50.1 73.4,40 72.6,41.3 71.9,42.5 71.1,43.8 139.8,91.3 136.5,96.1 133.2,100.5 129.7,104.8 126.1,108.9 122.4,112.8 -11.1,-80.9 -13.3,-80.6 -15.7,-80.3 -18,-79.8 -20.3,-79.2 -22.7,-78.6 -25.2,-78 -27.5,-77.1 -26.3,-67.2 -28.1,-66.4 -29.9,-65.7 -31.7,-64.9 -33.3,-64 -35.1,-63.2 -36.6,-62.2 -38.2,-61.3 152.9,26.8 150.3,30.1 147.5,33.7 144.3,37.4 140.9,41.5 69.2,22.3 68.3,23.5 67.3,24.5 66.3,25.7 65.4,26.9 64.3,28.2 63.3,29.3 62.1,30.7 61.1,32 60,33.3 58.7,34.6 57.6,36.1 56.4,37.5 55.1,39 53.9,40.4 52.5,42 51.2,43.5 49.9,45.1 48.5,46.7 47,48.3 45.7,50 44.1,51.7 c -45.6,-781.8 -484.9,-1487 -1166.6,-1872.7 663.6,177.6 1256.7,554.6 1699,1080.1 63.6,-413.8 15.6,-837 -138.8,-1226.1 254.9,172.5 491,371.5 704.2,593.5 -82.2,-445.3 -243.3,-872.5 -475.6,-1261.3 200.6,99.6 390.7,219 567.5,356.5 -23.8,-411.3 -155.1,-809.2 -380.8,-1153.9 107,-158.1 188.1,-332.3 240.4,-515.9 l 20.9,-77.4 18.8,-77.7 16.8,-78.1 14.9,-78.4 12.8,-78.8 11,-79 9.1,-79.4 7.3,-79.7 5.5,-80 3.8,-80.2 2.1,-80.5"
         style="fill:#f4d8a8;fill-opacity:1;fill-rule:nonzero;stroke:none"
         transform="matrix(0.13333333,0,0,-0.13333333,0,4000)" />
      <path
         id="path13"
         d="m 17890.5,10379.3 -288.6,1707.3 v 0 l 288.6,-1707.3"
         style="fill:#cc8d27;fill-opacity:1;fill-rule:nonzero;stroke:none"
         transform="matrix(0.13333333,0,0,-0.13333333,0,4000)" />
      <path
         id="path14"
         d="m 15620,9140.3 c -323.9,0 -647.8,62.9 -953.1,188.8 l -60.9,26.1 -60,27.8 -59.2,29.3 -58.2,30.8 -57.4,32.2 -56.5,33.7 -55.7,35 -54.9,36.3 -54.1,37.6 -53.3,38.7 -52.6,39.9 -51.9,41 -51.2,42 -50.4,43.1 -98.9,88.8 -96.4,92.2 -94,95.2 -91.7,97.7 -89.7,99.8 -173.6,204.5 -167.1,208.1 -61.2,77.8 -113.9,149.3 -109.2,151.9 -104.8,154.4 -100.5,156.8 -96.4,159 -92.6,161.3 -49.3,90.8 46.7,276.5 61.2,-77.8 167.1,-208.1 173.6,-204.5 89.7,-99.8 91.7,-97.7 94,-95.2 96.4,-92.2 98.9,-88.8 50.4,-43.1 51.2,-42 51.9,-41 52.6,-39.9 53.3,-38.7 54.1,-37.6 54.9,-36.3 55.7,-35 56.5,-33.7 57.4,-32.2 58.2,-30.8 59.2,-29.3 60,-27.8 60.9,-26.1 c 305.3,-125.9 629.2,-188.8 953.1,-188.8 323.9,0 647.8,62.9 953.1,188.8 l 60.9,26.1 60.1,27.8 59.1,29.3 58.2,30.8 57.4,32.2 56.5,33.7 55.7,35 54.9,36.3 54.1,37.6 53.3,38.7 52.6,39.9 51.9,41 51.2,42 50.4,43.1 98.9,88.8 96.4,92.2 94,95.2 91.7,97.7 89.7,99.8 173.6,204.5 167.1,208.1 61.1,77.7 288.6,-1707.3 -70.4,-83 -89.7,-99.8 -91.7,-97.7 -94,-95.2 -96.4,-92.2 -98.9,-88.8 -50.4,-43.1 -51.2,-42 -51.9,-41 -52.6,-39.9 -53.3,-38.7 -54.1,-37.6 -54.9,-36.3 -55.7,-35 -56.5,-33.7 -57.4,-32.2 -58.2,-30.8 -59.1,-29.3 -60.1,-27.8 -60.9,-26.1 c -305.3,-125.9 -629.2,-188.8 -953.1,-188.8"
         style="fill:#b79f7d;fill-opacity:1;fill-rule:nonzero;stroke:none"
         transform="matrix(0.13333333,0,0,-0.13333333,0,4000)" />
      <path
         id="path15"
         d="m 17540.8,12008.9 61.1,77.7 v 0 l -61.1,-77.7"
         style="fill:#c3ad86;fill-opacity:1;fill-rule:nonzero;stroke:none"
         transform="matrix(0.13333333,0,0,-0.13333333,0,4000)" />
      <path
         id="path16"
         d="m 20186.5,19079.2 0.4,-80.8 -1.2,-81 -2.7,-81.3 -4.3,-81.4 -5.8,-81.7 -15.8,-163.9 -21.2,-164.6 -26.4,-165.2 -31.1,-165.8 -35.6,-166.1 -39.7,-166.5 -43.4,-166.8 -46.9,-166.9 -102.7,-334 -112.3,-333.5 -243.2,-662.9 -485,-1289 34.9,258.9 28.8,250.1 22.6,240.6 16.2,230.4 9.9,219.7 3.4,208.6 -3.2,196.8 -4,93.9 -5.7,90.8 -7.2,87.7 -9,84.5 -10.5,81.2 -12.1,78 -13.8,74.8 -15.3,71.4 -17,68 -9,32.8 -9.5,31.9 -9.8,31.1 -10.2,30.2 -10.6,29.4 -11,28.5 -11.4,27.7 -11.7,26.8 -12.1,25.9 -12.5,25.1 -12.8,24.2 -13.3,23.4 -13.5,22.5 -14,21.7 -14.3,20.7 -14.6,20 -15,19.1 -15.4,18.2 2.2,159.6 -0.8,154.5 -3.6,149.2 -6.5,143.7 -9.4,138 -12.4,132.1 -15.3,126.2 -18.2,120 -8.8,49.4 -9.7,49.3 -11.1,49.3 -12.7,49.4 -7.1,24.8 -7.5,24.7 -8,24.7 -8.5,24.7 -9,24.8 -9.6,24.6 -10.1,24.7 -10.7,24.6 -11.3,24.5 -11.8,24.4 -12.4,24.4 -12.9,24.2 -13.5,24 -14,24 -14.6,23.7 -15.2,23.5 -15.7,23.3 -16.2,23.1 -16.7,22.8 -17.3,22.5 -17.7,22.2 -18.2,21.9 -18.6,21.6 -19.1,21.1 c 257.1,302.9 468.7,641.7 628,1005.6 -296.1,-289.5 -634.4,-532.3 -1003.5,-720.1 l -91.6,-45.1 -92.7,-42.7 -93.8,-40.3 -94.8,-37.8 -95.8,-35.3 -96.7,-32.6 -97.6,-30.1 -98.5,-27.3 -99.2,-24.7 -100,-21.9 -100.6,-19.1 -101.4,-16.2 -101.9,-13.3 -102.4,-10.4 -103,-7.4 -103.4,-4.4 -59.1,-1.1 h -59.2 l -118.6,2.9 -119,6.6 -119.2,10.1 -119.5,13.3 -119.6,16.2 -119.8,18.8 -120,21.1 -240.1,48.1 -240.2,54 -479.4,116.8 -476.3,113.2 -236.3,49.6 -117.5,22 -117.1,19.9 -116.6,17.4 -116.1,14.6 -115.5,11.6 -114.9,8.2 -114.3,4.6 -56.9,0.8 -56.8,-0.1 -56.5,-1.2 -56.4,-2.3 -56.2,-3.4 -56,-4.6 -1661.9,871 c 353.8,-339.1 702.1,-684 1044.5,-1034.5 l -35.3,-19.6 -34.9,-21 -34.4,-22.2 -34.1,-23.6 -33.4,-24.8 -32.9,-26 -32.3,-27.1 -31.4,-28.3 -30.7,-29.4 -29.9,-30.3 -28.9,-31.2 -28,-32.1 -26.9,-32.9 -25.9,-33.6 -24.7,-34.2 -23.6,-34.8 -22.3,-35.3 -21.2,-35.6 -19.9,-36.1 -18.6,-36.3 -17.4,-36.6 -16.1,-36.7 -14.9,-36.8 -13.7,-37 -12.5,-36.9 -11.4,-37 -10.3,-36.9 -9.3,-36.9 -8.4,-36.9 -7.7,-36.9 -13.4,-73.7 -18.2,-120 -15.3,-126.2 -12.3,-132.1 -9.5,-138 -6.5,-143.7 -3.6,-149.2 -0.7,-154.5 2.1,-159.6 -5.9,-5.7 -5.8,-6 -5.8,-6.2 -5.7,-6.5 -5.7,-6.7 -5.6,-7 -5.5,-7.2 -5.5,-7.5 -5.4,-7.8 -5.3,-8.1 -5.3,-8.3 -5.2,-8.5 -5.2,-8.9 -5.1,-9.1 -10,-19 -9.7,-20 -9.5,-21.1 -9.2,-22.1 -9,-23.2 -8.7,-24.3 -8.5,-25.3 -8.1,-26.4 -7.9,-27.4 -7.7,-28.5 -7.4,-29.5 -13.9,-62.2 -12.8,-66.4 -11.7,-70.5 -10.6,-74.7 -9.4,-78.7 -8.3,-82.9 -7.2,-86.8 -11,-185.6 -6.3,-201.1 -1.8,-216.1 2.8,-230.7 19.1,-502.7 36.6,-553.1 c -290.6,825 -589.6,1647.1 -896.9,2466.1 l -52,175.7 -48.5,175.7 -44.6,175.5 -40.3,175.1 -35.7,174.8 -30.5,174.2 -25.1,173.6 -19.3,172.9 -7.3,86.1 -5.7,85.9 -4,85.7 -2.4,85.4 -0.5,85.2 1.2,84.9 3.1,84.6 5,84.3 6.9,84 8.9,83.6 11,83.4 13.1,83 15.2,82.6 17.4,82.2 19.7,81.9 21.9,81.4 c 109.3,384 343.1,720.7 664.6,957.3 l 1.1,75.4 2.4,73.7 3.7,72.2 5.1,70.5 6.4,68.9 7.7,67.3 9,65.8 10.3,64.3 11.5,62.7 12.7,61.2 14,59.7 15.3,58.3 16.4,56.8 17.6,55.4 18.8,53.9 20,52.6 21.1,51.1 22.2,49.9 23.4,48.4 24.5,47.1 25.5,45.9 26.7,44.5 27.7,43.2 28.8,42 29.8,40.7 30.9,39.6 31.8,38.3 32.9,37.1 33.8,35.9 34.8,34.8 35.8,33.7 36.7,32.5 51.8,43.1 52.8,41 53.7,39 54.5,37 55.4,35 56.3,33.3 57,31.4 57.8,29.6 58.5,28 59.3,26.3 60,24.8 60.7,23.3 61.3,21.8 62,20.4 62.5,19.2 63.2,17.8 63.7,16.6 64.2,15.5 130,27.7 131.8,23.9 133.5,20.4 134.9,17.5 136.1,15 275.3,24.5 556.9,40.3 278.4,23.3 276.5,30.5 136.9,19.2 135.9,22.4 134.5,26.1 133.1,30.2 65.9,16.8 65.4,18.1 65,19.4 64.5,20.6 64,22.1 63.4,23.6 62.9,25 62.2,26.6 c 100.1,44.4 198.6,92.1 295.4,143.1 l -44,-68.9 -46.2,-67.6 -48.5,-66 -50.7,-64.5 -52.9,-62.6 -27.3,-30.7 -27.8,-30.1 -28.4,-29.7 -28.8,-29.1 -29.4,-28.7 -29.9,-28.1 -33.2,-30 -33.8,-29.3 -34.4,-28.7 -35,-28 -35.4,-27.3 -36,-26.6 -36.5,-26 -36.9,-25.2 -37.5,-24.6 -37.8,-23.8 -38.3,-23.2 -38.6,-22.4 -39.1,-21.8 -39.4,-21 -39.7,-20.3 -40.1,-19.5 107.5,16.2 107.3,18.4 107,20.7 106.7,22.9 106.3,25.2 105.7,27.5 105.2,29.7 104.6,31.9 103.8,34.3 103.1,36.4 102.2,38.8 101.4,41.1 100.3,43.3 99.3,45.6 98.2,47.9 97,50.1 73.4,40 72.6,41.3 71.9,42.5 71.1,43.8 139.8,91.3 136.5,96.1 133.2,100.5 129.7,104.8 126.1,108.9 122.4,112.8 -11.1,-80.9 -13.3,-80.6 -15.7,-80.3 -18,-79.8 -20.3,-79.2 -22.7,-78.6 -25.2,-78 -27.5,-77.1 -26.3,-67.2 -28.1,-66.4 -29.9,-65.7 -31.7,-64.9 -33.3,-64 -35.1,-63.2 -36.6,-62.2 -38.2,-61.3 152.9,26.8 150.3,30.1 147.5,33.7 144.3,37.4 140.9,41.5 69.2,22.3 68.3,23.5 67.3,24.5 66.3,25.7 65.4,26.9 64.3,28.2 63.3,29.3 62.1,30.7 61.1,32 60,33.3 58.7,34.6 57.6,36.1 56.4,37.5 55.1,39 53.9,40.4 52.5,42 51.2,43.5 49.9,45.1 48.5,46.7 47,48.3 45.7,50 44.1,51.7 c -45.6,-781.8 -484.9,-1487 -1166.6,-1872.7 663.6,177.6 1256.7,554.6 1699,1080.1 63.6,-413.8 15.6,-837 -138.8,-1226.1 254.9,172.5 491,371.5 704.2,593.5 -82.2,-445.3 -243.3,-872.5 -475.6,-1261.3 200.6,99.6 390.7,219 567.5,356.5 -23.8,-411.3 -155.1,-809.2 -380.8,-1153.9 107,-158.1 188.1,-332.3 240.4,-515.9 l 20.9,-77.4 18.8,-77.7 16.8,-78.1 14.9,-78.4 12.8,-78.8 11,-79 9.1,-79.4 7.3,-79.7 5.5,-80 3.8,-80.2 2.1,-80.5"
         style="fill:#141414;fill-opacity:1;fill-rule:nonzero;stroke:none"
         transform="matrix(0.13333333,0,0,-0.13333333,0,4000)" />
      <path
         id="path17"
         d="m 14483,16860.8 c 18.9,207.7 -118.2,397.4 -321.2,444.8 -713.7,166.7 -1453.8,185.9 -2175.2,56.4 -194.8,-35 -338.4,-201.9 -344,-399.8 -10.2,-366 58.9,-729.9 202.6,-1066.7 79.2,-185.4 242.7,-321.5 439.4,-365.7 436.6,-97.9 887.8,-112.5 1329.8,-42.8 276.5,43.5 512.8,222.5 629.6,476.9 130.1,283.2 210.9,586.5 239,896.9 z m 3727.5,-965.3 c 143.7,336.8 212.8,700.7 202.5,1066.7 -5.5,197.9 -149.1,364.8 -343.9,399.8 -721.4,129.5 -1461.6,110.3 -2175.2,-56.4 -203.1,-47.4 -340.1,-237.1 -321.3,-444.8 28.2,-310.4 109,-613.7 239.1,-896.9 116.8,-254.4 353.1,-433.4 629.6,-476.9 442,-69.7 893.2,-55.1 1329.8,42.8 196.7,44.2 360.2,180.3 439.4,365.7 z m 1663.1,1324.2 -63.5,-206.5 -47.5,-141.2 c -203.6,43.8 -408.8,79.3 -615.3,106.5 -214.7,28.3 -415.4,-112.1 -462.6,-323.4 -61.1,-274.1 -145,-542.6 -250.6,-802.7 -102,-251 -319.2,-437 -582.9,-499.1 -471.8,-111.1 -960.7,-129.5 -1439.5,-54 -339.3,53.5 -629.3,273.1 -772.7,585.3 -113.6,247.5 -205.4,504.4 -274.1,768 -48.5,186.2 -238.8,297.7 -425,249.2 -122,-31.8 -217.3,-127.2 -249.2,-249.2 -68.7,-263.6 -160.4,-520.5 -274.1,-768 -143.3,-312.2 -433.3,-531.8 -772.6,-585.3 -478.8,-75.5 -967.7,-57.1 -1439.6,54 -263.6,62.1 -480.8,248.1 -582.8,499.1 -105.7,260.1 -189.5,528.6 -250.7,802.7 -47.1,211.3 -247.8,351.7 -462.5,323.4 -218.7,-28.8 -436,-66.9 -651.4,-114.4 -41.9,112.6 -83.9,225.1 -126.1,337.6 953.8,337.7 1962,495.6 2973.4,465.5 363.1,-10.8 724.4,-56.9 1078.6,-137.6 97.9,-22.3 192,-58.5 279.5,-107.7 351.2,-197.1 779.7,-197.1 1130.8,0 87.6,49.2 181.7,85.4 279.6,107.7 354.2,80.7 715.4,126.8 1078.6,137.6 993.2,29.5 1983.4,-122.2 2922.2,-447.5"
         style="fill:#141414;fill-opacity:1;fill-rule:nonzero;stroke:none"
         transform="matrix(0.13333333,0,0,-0.13333333,0,4000)" />
    </g>
  </g>
</svg>
